<svg width="20" height="20" viewBox="0 0 20 20" fill="none" xmlns="http://www.w3.org/2000/svg">
<g id="pass-valid-line">
<path id="Vector" d="M4.375 13.75H15.625V6.25H4.375V13.75ZM3.125 5.625C3.125 5.27983 3.40483 5 3.75 5H16.25C16.5952 5 16.875 5.27983 16.875 5.625V14.375C16.875 14.7202 16.5952 15 16.25 15H3.75C3.40483 15 3.125 14.7202 3.125 14.375V5.625ZM8.125 8.75C8.125 8.40482 7.84517 8.125 7.5 8.125C7.15483 8.125 6.875 8.40482 6.875 8.75C6.875 9.09519 7.15483 9.375 7.5 9.375C7.84517 9.375 8.125 9.09519 8.125 8.75ZM9.375 8.75C9.375 9.78556 8.53553 10.625 7.5 10.625C6.46447 10.625 5.625 9.78556 5.625 8.75C5.625 7.71447 6.46447 6.875 7.5 6.875C8.53553 6.875 9.375 7.71447 9.375 8.75ZM7.50112 12.5C6.89689 12.5 6.35087 12.7442 5.95433 13.1407L5.07045 12.2568C5.69183 11.6354 6.55206 11.25 7.50112 11.25C8.45019 11.25 9.31044 11.6354 9.93181 12.2568L9.04794 13.1407C8.65138 12.7442 8.10536 12.5 7.50112 12.5ZM12.6294 11.6919L15.1294 9.19194L14.2456 8.30806L12.1875 10.3661L11.0669 9.24556L10.1831 10.1294L11.7456 11.6919L12.1875 12.1339L12.6294 11.6919Z" fill="#868C98"/>
</g>
</svg>
