<svg width="24" height="24" viewBox="0 0 24 24" fill="none" xmlns="http://www.w3.org/2000/svg">
<g id="bank-card-line">
<path id="Vector" d="M19.7 11.1004V10.6004H19.2H4.8H4.3V11.1004V18.3004V18.8004H4.8H19.2H19.7V18.3004V11.1004ZM19.2 9.80039H19.7V9.30039V5.70039V5.20039H19.2H4.8H4.3V5.70039V9.30039V9.80039H4.8H19.2ZM3.9 4.40039H20.1C20.2061 4.40039 20.3078 4.44253 20.3828 4.51755C20.4579 4.59256 20.5 4.6943 20.5 4.80039V19.2004C20.5 19.3065 20.4579 19.4082 20.3828 19.4832C20.3078 19.5582 20.2061 19.6004 20.1 19.6004H3.9C3.79391 19.6004 3.69217 19.5582 3.61716 19.4832C3.54214 19.4082 3.5 19.3065 3.5 19.2004V4.80039C3.5 4.6943 3.54214 4.59256 3.61716 4.51755C3.69217 4.44253 3.79391 4.40039 3.9 4.40039ZM14.3 15.2004H16.9V16.0004H14.3V15.2004Z" fill="#0A0D14" stroke="#0A0D14"/>
</g>
</svg>
