<svg width="24" height="24" viewBox="0 0 24 24" fill="none" xmlns="http://www.w3.org/2000/svg">
<g id="building-line">
<path id="Vector" d="M20.1 18.3H21.9V20.1H2.09998V18.3H3.89998V4.80002C3.89998 4.56133 3.9948 4.33241 4.16358 4.16363C4.33236 3.99485 4.56128 3.90002 4.79998 3.90002H13.8C14.0387 3.90002 14.2676 3.99485 14.4364 4.16363C14.6052 4.33241 14.7 4.56133 14.7 4.80002V18.3H18.3V11.1H16.5V9.30002H19.2C19.4387 9.30002 19.6676 9.39485 19.8364 9.56363C20.0052 9.73241 20.1 9.96133 20.1 10.2V18.3ZM5.69998 5.70002V18.3H12.9V5.70002H5.69998ZM7.49998 11.1H11.1V12.9H7.49998V11.1ZM7.49998 7.50002H11.1V9.30002H7.49998V7.50002Z" fill="#868C98"/>
</g>
</svg>
