<svg width="24" height="24" viewBox="0 0 24 24" fill="none" xmlns="http://www.w3.org/2000/svg">
<g id="file-copy-line">
<path id="Vector" d="M7.49996 6.6V3.9C7.49996 3.66131 7.59478 3.43239 7.76357 3.2636C7.93235 3.09482 8.16127 3 8.39996 3H19.2C19.4387 3 19.6676 3.09482 19.8364 3.2636C20.0051 3.43239 20.1 3.66131 20.1 3.9V16.5C20.1 16.7387 20.0051 16.9676 19.8364 17.1364C19.6676 17.3052 19.4387 17.4 19.2 17.4H16.5V20.1C16.5 20.5968 16.095 21 15.5937 21H4.80626C4.68758 21.0007 4.56992 20.978 4.46005 20.9331C4.35019 20.8882 4.25027 20.822 4.16606 20.7384C4.08184 20.6547 4.01498 20.5553 3.96931 20.4457C3.92365 20.3362 3.90008 20.2187 3.89996 20.1L3.90266 7.5C3.90266 7.0032 4.30766 6.6 4.80896 6.6H7.49996ZM5.70266 8.4L5.69996 19.2H14.7V8.4H5.70266ZM9.29996 6.6H16.5V15.6H18.3V4.8H9.29996V6.6Z" fill="#525866"/>
</g>
</svg>
