<svg width="21" height="20" viewBox="0 0 21 20" fill="none" xmlns="http://www.w3.org/2000/svg">
<g id="camera-fill">
<path id="Vector" d="M8.25 3.25H12.75L14.25 4.75H17.25C17.4489 4.75 17.6397 4.82902 17.7803 4.96967C17.921 5.11032 18 5.30109 18 5.5V16C18 16.1989 17.921 16.3897 17.7803 16.5303C17.6397 16.671 17.4489 16.75 17.25 16.75H3.75C3.55109 16.75 3.36032 16.671 3.21967 16.5303C3.07902 16.3897 3 16.1989 3 16V5.5C3 5.30109 3.07902 5.11032 3.21967 4.96967C3.36032 4.82902 3.55109 4.75 3.75 4.75H6.75L8.25 3.25ZM10.5 15.25C11.6935 15.25 12.8381 14.7759 13.682 13.932C14.5259 13.0881 15 11.9435 15 10.75C15 9.55653 14.5259 8.41193 13.682 7.56802C12.8381 6.72411 11.6935 6.25 10.5 6.25C9.30653 6.25 8.16193 6.72411 7.31802 7.56802C6.47411 8.41193 6 9.55653 6 10.75C6 11.9435 6.47411 13.0881 7.31802 13.932C8.16193 14.7759 9.30653 15.25 10.5 15.25ZM10.5 13.75C9.70435 13.75 8.94129 13.4339 8.37868 12.8713C7.81607 12.3087 7.5 11.5456 7.5 10.75C7.5 9.95435 7.81607 9.19129 8.37868 8.62868C8.94129 8.06607 9.70435 7.75 10.5 7.75C11.2956 7.75 12.0587 8.06607 12.6213 8.62868C13.1839 9.19129 13.5 9.95435 13.5 10.75C13.5 11.5456 13.1839 12.3087 12.6213 12.8713C12.0587 13.4339 11.2956 13.75 10.5 13.75Z" fill="white"/>
</g>
</svg>
