<svg width="24" height="24" viewBox="0 0 24 24" fill="none" xmlns="http://www.w3.org/2000/svg">
<g id="calendar-event-line">
<path id="Vector" d="M16 3.89961V4.39961H16.5H20.1C20.2061 4.39961 20.3078 4.44175 20.3828 4.51677C20.4579 4.59178 20.5 4.69352 20.5 4.79961V19.1996C20.5 19.3057 20.4579 19.4074 20.3828 19.4825C20.3078 19.5575 20.2061 19.5996 20.1 19.5996H3.9C3.79391 19.5996 3.69217 19.5575 3.61716 19.4825C3.54214 19.4074 3.5 19.3057 3.5 19.1996V4.79961C3.5 4.69352 3.54214 4.59178 3.61716 4.51677C3.69217 4.44175 3.79391 4.39961 3.9 4.39961H7.5H8V3.89961V2.59961H8.8V3.89961V4.39961H9.3H14.7H15.2V3.89961V2.59961H16V3.89961ZM19.2 9.79961H19.7V9.29961V5.69961V5.19961H19.2H16.5H16V5.69961V6.99961H15.2V5.69961V5.19961H14.7H9.3H8.8V5.69961V6.99961H8V5.69961V5.19961H7.5H4.8H4.3V5.69961V9.29961V9.79961H4.8H19.2ZM19.7 11.0996V10.5996H19.2H4.8H4.3V11.0996V18.2996V18.7996H4.8H19.2H19.7V18.2996V11.0996ZM7.1 13.3996H10.6V15.9996H7.1V13.3996Z" fill="#0A0D14" stroke="#0A0D14"/>
</g>
</svg>
