<svg width="20" height="20" viewBox="0 0 20 20" fill="none" xmlns="http://www.w3.org/2000/svg">
<g id="download-cloud-line">
<path id="Vector" d="M1.75 11.8767C1.74954 11.0482 1.96032 10.2334 2.36241 9.50913C2.76451 8.78486 3.34465 8.17507 4.048 7.7374C4.23363 6.28997 4.94035 4.95978 6.03589 3.99577C7.13143 3.03176 8.54071 2.5 10 2.5C11.4593 2.5 12.8686 3.03176 13.9641 3.99577C15.0597 4.95978 15.7664 6.28997 15.952 7.7374C16.8244 8.28017 17.503 9.08471 17.891 10.0361C18.2789 10.9876 18.3563 12.0372 18.1121 13.0353C17.8679 14.0333 17.3146 14.9287 16.5313 15.5936C15.7479 16.2584 14.7745 16.6587 13.75 16.7374L6.25 16.7517C3.733 16.5462 1.75 14.4432 1.75 11.8767ZM13.636 15.2419C14.3454 15.1874 15.0194 14.91 15.5617 14.4496C16.104 13.9891 16.487 13.369 16.6558 12.6778C16.8247 11.9867 16.7708 11.2599 16.5019 10.6012C16.233 9.9425 15.7628 9.38564 15.1585 9.01015L14.5532 8.6329L14.4632 7.9264C14.3231 6.84167 13.7927 5.84511 12.9712 5.12297C12.1497 4.40083 11.0934 4.00254 9.99962 4.00254C8.90587 4.00254 7.84954 4.40083 7.02807 5.12297C6.20659 5.84511 5.67619 6.84167 5.536 7.9264L5.446 8.6329L4.84225 9.01015C4.23797 9.3856 3.76779 9.9424 3.49885 10.601C3.22991 11.2596 3.17597 11.9864 3.34473 12.6775C3.51349 13.3686 3.89633 13.9887 4.43856 14.4493C4.98079 14.9098 5.65469 15.1872 6.364 15.2419L6.49375 15.2517H13.5062L13.636 15.2419ZM10.75 10.0017H13L10 13.7517L7 10.0017H9.25V7.00165H10.75V10.0017Z" fill="#525866"/>
</g>
</svg>
