<svg width="96" height="98" viewBox="0 0 96 98" fill="none" xmlns="http://www.w3.org/2000/svg">
<g id="Empty States [Finance &#38; Banking] [1.0]">
<rect y="2" width="96" height="96" rx="48" fill="#F6F8FA"/>
<path id="vector" d="M81.7458 53.7728V72.9227C81.7458 75.1703 79.9258 76.9864 77.6821 76.9864H43.9429C41.6992 76.9864 39.8792 75.1703 39.8792 72.9227V46.669C39.8792 46.575 39.8831 46.4848 39.8871 46.3945C40.0087 48.242 41.5463 49.709 43.4291 49.709H77.6822C79.9259 49.709 81.7458 51.5252 81.7458 53.7728Z" fill="#CDD0D5" stroke="#868C98" stroke-width="0.648649" stroke-linecap="round" stroke-linejoin="round"/>
<path id="vector_2" d="M76.5656 53.7728V72.9227C76.5656 75.1703 74.7455 76.9864 72.5019 76.9864H38.7626C36.5189 76.9864 34.6989 75.1703 34.6989 72.9227V46.669C34.6989 46.575 34.7028 46.4848 34.7068 46.3945C34.8284 48.242 36.366 49.709 38.2488 49.709H72.5019C74.7456 49.709 76.5656 51.5252 76.5656 53.7728Z" fill="white" stroke="#868C98" stroke-width="0.648649" stroke-linecap="round" stroke-linejoin="round"/>
<path id="vector_3" d="M77.079 60.5625H69.1132C68.1831 60.5625 67.4291 61.3165 67.4291 62.2467V65.6933C67.4291 66.6234 68.1831 67.3775 69.1132 67.3775H77.079C78.0092 67.3775 78.7632 66.6234 78.7632 65.6933V62.2467C78.7632 61.3165 78.0092 60.5625 77.079 60.5625Z" fill="#E2E4E9" stroke="#868C98" stroke-width="0.648649" stroke-linecap="round" stroke-linejoin="round"/>
<path id="vector_4" d="M70.8664 65.4224C71.6691 65.4224 72.3198 64.7717 72.3198 63.969C72.3198 63.1663 71.6691 62.5156 70.8664 62.5156C70.0637 62.5156 69.413 63.1663 69.413 63.969C69.413 64.7717 70.0637 65.4224 70.8664 65.4224Z" fill="#868C98" stroke="#868C98" stroke-width="0.648649" stroke-linecap="round" stroke-linejoin="round"/>
<path id="vector_5" d="M59.3605 19.9844H32.2993C30.3864 19.9844 28.8358 21.5351 28.8358 23.4479V73.442C28.8358 75.3549 30.3864 76.9056 32.2993 76.9056H59.3605C61.2734 76.9056 62.8241 75.3549 62.8241 73.442V23.4479C62.8241 21.5351 61.2734 19.9844 59.3605 19.9844Z" fill="#CDD0D5" stroke="#868C98" stroke-width="0.648649" stroke-linecap="round" stroke-linejoin="round"/>
<path id="vector_6" d="M55.1924 19.9844H28.1312C26.2183 19.9844 24.6677 21.5351 24.6677 23.4479V73.442C24.6677 75.3549 26.2183 76.9056 28.1312 76.9056H55.1924C57.1053 76.9056 58.656 75.3549 58.656 73.442V23.4479C58.656 21.5351 57.1053 19.9844 55.1924 19.9844Z" fill="white" stroke="#868C98" stroke-width="0.648649" stroke-linecap="round" stroke-linejoin="round"/>
<path id="vector_7" d="M33.892 19.9844H49.7679V21.327C49.7679 22.4772 48.8342 23.4109 47.684 23.4109H35.9758C34.8257 23.4109 33.8919 22.4772 33.8919 21.327L33.892 19.9844Z" fill="#868C98" stroke="#868C98" stroke-width="0.648649" stroke-linecap="round" stroke-linejoin="round"/>
<path id="vector_8" d="M26.5713 80.0164C33.1817 80.0164 38.5405 74.6576 38.5405 68.0473C38.5405 61.4369 33.1817 56.0781 26.5713 56.0781C19.9609 56.0781 14.6022 61.4369 14.6022 68.0473C14.6022 74.6576 19.9609 80.0164 26.5713 80.0164Z" fill="#F6F8FA" stroke="#868C98" stroke-width="0.648649" stroke-linecap="round" stroke-linejoin="round"/>
<path id="vector_9" d="M66.5441 43.6227C71.0966 43.6227 74.7871 39.9322 74.7871 35.3797C74.7871 30.8272 71.0966 27.1367 66.5441 27.1367C61.9917 27.1367 58.3011 30.8272 58.3011 35.3797C58.3011 39.9322 61.9917 43.6227 66.5441 43.6227Z" fill="white" stroke="#868C98" stroke-width="0.648649" stroke-linecap="round" stroke-linejoin="round"/>
<path id="vector_10" d="M64.7673 32.4452C64.7673 31.4637 65.563 30.668 66.5446 30.668C67.5262 30.668 68.3219 31.4637 68.3219 32.4452" stroke="#868C98" stroke-width="0.648649" stroke-linecap="round" stroke-linejoin="round"/>
<path id="vector_11" d="M68.7388 38.7075H64.3502C63.6296 38.7075 63.0923 38.0373 63.1485 37.2349L63.4547 33.5975C63.4998 32.9536 64.0378 32.4453 64.6575 32.4453H68.4316C69.0513 32.4453 69.5893 32.9536 69.6344 33.5975L69.9406 37.2349C69.9967 38.0373 69.4594 38.7075 68.7388 38.7075Z" stroke="#868C98" stroke-width="0.648649" stroke-linecap="round" stroke-linejoin="round"/>
<path id="vector_12" d="M32.9802 68.5151H30.9279V74.1714H22.2092V68.5151H20.1613L22.3982 66.1596V62.4683H24.4284V64.0239L26.5686 61.7695L32.9802 68.5151Z" stroke="#868C98" stroke-width="0.648649" stroke-linecap="round" stroke-linejoin="round"/>
<path id="vector_13" d="M27.3963 70.4141H25.7469C25.4881 70.4141 25.2783 70.6239 25.2783 70.8826V73.8558C25.2783 74.1146 25.4881 74.3244 25.7469 74.3244H27.3963C27.6551 74.3244 27.8649 74.1146 27.8649 73.8558V70.8826C27.8649 70.6239 27.6551 70.4141 27.3963 70.4141Z" fill="#868C98"/>
<path id="vector_14" d="M24.4289 64.0234L22.3987 66.1592" stroke="#868C98" stroke-width="0.648649" stroke-linecap="round" stroke-linejoin="round"/>
<path id="vector_15" d="M21.9191 38.6105C25.9602 38.6105 29.2361 35.3345 29.2361 31.2935C29.2361 27.2525 25.9602 23.9766 21.9191 23.9766C17.8781 23.9766 14.6022 27.2525 14.6022 31.2935C14.6022 35.3345 17.8781 38.6105 21.9191 38.6105Z" fill="#F6F8FA" stroke="#868C98" stroke-width="0.648649" stroke-linecap="round" stroke-linejoin="round"/>
<path id="vector_16" d="M23.3196 34.471H20.5181C19.8481 34.471 19.2668 34.0084 19.1165 33.3555L18.4244 30.3516H25.4133L24.7212 33.3555C24.5708 34.0084 23.9895 34.471 23.3196 34.471Z" stroke="#868C98" stroke-width="0.648649" stroke-linecap="round" stroke-linejoin="round"/>
<path id="vector_17" d="M26.5061 30.3516H17.3311" stroke="#868C98" stroke-width="0.648649" stroke-linecap="round" stroke-linejoin="round"/>
<path id="vector_18" d="M19.1744 30.351L21.2871 28.1094" stroke="#868C98" stroke-width="0.648649" stroke-linecap="round" stroke-linejoin="round"/>
<path id="vector_19" d="M24.6621 30.351L22.5494 28.1094" stroke="#868C98" stroke-width="0.648649" stroke-linecap="round" stroke-linejoin="round"/>
<path id="vector_20" d="M30.2065 51.4389L35.2043 46.441L38.0519 49.2886L40.8995 46.441H44.5025L47.3501 49.2886L51.1855 45.4531H53.452" stroke="#868C98" stroke-width="0.648649" stroke-linecap="round" stroke-linejoin="round"/>
<path id="vector_21" d="M53.9256 5.62146C53.9256 5.62146 50.0289 4.46061 48.8588 8.34009C50.0289 4.46066 46.1402 3.27335 46.1402 3.27335C46.1402 3.27335 50.0369 4.43412 51.2069 0.554688C50.0369 4.43412 53.9256 5.62146 53.9256 5.62146Z" fill="white" stroke="#868C98" stroke-width="0.648649" stroke-linecap="round" stroke-linejoin="round"/>
<path id="vector_22" d="M52.7254 86.8243C52.7254 86.8243 49.3976 90.7284 53.277 94.0581C49.3975 90.7283 46.0432 94.6096 46.0432 94.6096C46.0432 94.6096 49.3711 90.7055 45.4916 87.3758C49.3711 90.7055 52.7254 86.8243 52.7254 86.8243Z" fill="white" stroke="#868C98" stroke-width="0.648649" stroke-linecap="round" stroke-linejoin="round"/>
</g>
</svg>
