<svg width="24" height="24" viewBox="0 0 24 24" fill="none" xmlns="http://www.w3.org/2000/svg">
<g clip-path="url(#clip0_1691_41676)">
<path d="M12 24C18.6274 24 24 18.6274 24 12C24 5.37258 18.6274 0 12 0C5.37258 0 0 5.37258 0 12C0 18.6274 5.37258 24 12 24Z" fill="#0052B4"/>
<path d="M11.9993 4.69556L12.3878 5.89129H13.645L12.6279 6.63028L13.0164 7.82601L11.9993 7.08698L10.9821 7.82601L11.3707 6.63028L10.3535 5.89129H11.6107L11.9993 4.69556Z" fill="#FFDA44"/>
<path d="M6.83377 6.83503L7.95408 7.40578L8.84306 6.51685L8.64633 7.75856L9.76659 8.32936L8.52483 8.52605L8.32814 9.76786L7.75734 8.6476L6.51562 8.84433L7.40461 7.95535L6.83377 6.83503Z" fill="#FFDA44"/>
<path d="M4.69531 11.9998L5.89105 11.6112V10.354L6.62998 11.3712L7.82577 10.9826L7.08669 11.9998L7.82577 13.0169L6.62998 12.6284L5.89105 13.6456V12.3883L4.69531 11.9998Z" fill="#FFDA44"/>
<path d="M6.83377 17.165L7.40456 16.0446L6.51562 15.1557L7.75739 15.3524L8.32809 14.2322L8.52483 15.4739L9.76655 15.6706L8.64642 16.2414L8.84306 17.4831L7.95408 16.5942L6.83377 17.165Z" fill="#FFDA44"/>
<path d="M11.9993 19.3042L11.6107 18.1085H10.3535L11.3707 17.3695L10.9821 16.1738L11.9993 16.9128L13.0164 16.1738L12.6279 17.3695L13.645 18.1085H12.3878L11.9993 19.3042Z" fill="#FFDA44"/>
<path d="M17.1652 17.165L16.0449 16.5942L15.1559 17.4832L15.3526 16.2414L14.2324 15.6706L15.4741 15.4739L15.6708 14.2322L16.2416 15.3524L17.4833 15.1557L16.5943 16.0447L17.1652 17.165Z" fill="#FFDA44"/>
<path d="M19.3042 11.9998L18.1085 12.3883V13.6456L17.3695 12.6284L16.1738 13.0169L16.9128 11.9998L16.1738 10.9826L17.3695 11.3712L18.1085 10.354V11.6113L19.3042 11.9998Z" fill="#FFDA44"/>
<path d="M17.1652 6.83499L16.5944 7.9553L17.4833 8.84428L16.2415 8.6475L15.6708 9.76777L15.4741 8.526L14.2324 8.32927L15.3526 7.75852L15.1559 6.51685L16.0449 7.40578L17.1652 6.83499Z" fill="#FFDA44"/>
</g>
<defs>
<clipPath id="clip0_1691_41676">
<rect width="24" height="24" fill="white"/>
</clipPath>
</defs>
</svg>
