<svg width="25" height="24" viewBox="0 0 25 24" fill="none" xmlns="http://www.w3.org/2000/svg">
<g id="eye-off-line">
<path id="Vector" d="M17.7936 18.5667C16.2107 19.5707 14.3743 20.1024 12.4998 20.0994C7.647 20.0994 3.6096 16.6074 2.7627 11.9994C3.14972 9.90307 4.20416 7.98803 5.7687 6.54002L2.9526 3.72663L4.2261 2.45312L22.0452 20.2731L20.7717 21.5457L17.7927 18.5667H17.7936ZM7.0413 7.81442C5.8182 8.92646 4.96618 10.3873 4.6005 11.9994C4.88156 13.2292 5.44583 14.3765 6.2484 15.3498C7.05096 16.3231 8.06966 17.0956 9.22339 17.6058C10.3771 18.116 11.634 18.3499 12.8941 18.2887C14.1541 18.2276 15.3825 17.8732 16.4814 17.2536L14.6562 15.4284C13.8792 15.9179 12.959 16.1287 12.0464 16.0264C11.1338 15.9241 10.2831 15.5147 9.63381 14.8654C8.98449 14.2161 8.5751 13.3654 8.4728 12.4528C8.3705 11.5402 8.58136 10.62 9.0708 9.84303L7.0413 7.81442ZM13.3224 14.0946L10.4046 11.1768C10.2445 11.5845 10.2068 12.03 10.2962 12.4587C10.3855 12.8875 10.5981 13.2808 10.9078 13.5905C11.2175 13.9002 11.6108 14.1128 12.0396 14.2022C12.4683 14.2916 12.9139 14.2539 13.3215 14.0937L13.3224 14.0946ZM20.4261 16.1322L19.1382 14.8452C19.7398 13.9878 20.1681 13.0211 20.3991 11.9994C20.1545 10.9282 19.6946 9.91786 19.0474 9.02987C18.4002 8.14188 17.5792 7.39478 16.6343 6.83397C15.6894 6.27316 14.6403 5.91036 13.5508 5.76761C12.4613 5.62487 11.3541 5.70517 10.2966 6.00362L8.8764 4.58343C9.9987 4.14243 11.2218 3.89942 12.4998 3.89942C17.3526 3.89942 21.39 7.39143 22.2369 11.9994C21.9611 13.4986 21.3413 14.9132 20.4261 16.1322ZM12.2505 7.95662C12.8234 7.92122 13.3972 8.00798 13.934 8.21116C14.4708 8.41434 14.9582 8.72928 15.3641 9.13513C15.7699 9.54098 16.0849 10.0284 16.2881 10.5652C16.4912 11.102 16.578 11.6759 16.5426 12.2487L12.2496 7.95662H12.2505Z" fill="#0A0D14"/>
</g>
</svg>
