<svg width="24" height="24" viewBox="0 0 24 24" fill="none" xmlns="http://www.w3.org/2000/svg">
<g id="Excel">
<rect id="Vector" x="6.75" y="3" width="15.75" height="18" rx="1.5" fill="#2FB776"/>
<path id="Vector_2" d="M6.75 16.5H22.5V19.5C22.5 20.3284 21.8284 21 21 21H8.25C7.42157 21 6.75 20.3284 6.75 19.5V16.5Z" fill="url(#paint0_linear_3062_74854)"/>
<rect id="Vector_3" x="14.625" y="12" width="7.875" height="4.5" fill="#229C5B"/>
<rect id="Vector_4" x="14.625" y="7.5" width="7.875" height="4.5" fill="#27AE68"/>
<path id="Vector_5" d="M6.75 4.5C6.75 3.67157 7.42157 3 8.25 3H14.625V7.5H6.75V4.5Z" fill="#1D854F"/>
<rect id="Vector_6" x="6.75" y="7.5" width="7.875" height="4.5" fill="#197B43"/>
<rect id="Vector_7" x="6.75" y="12" width="7.875" height="4.5" fill="#1B5B38"/>
<path id="Vector_8" d="M6.75 9.75C6.75 8.50736 7.75736 7.5 9 7.5H12.375C13.6176 7.5 14.625 8.50736 14.625 9.75V16.8214C14.625 18.0641 13.6176 19.0714 12.375 19.0714H6.75V9.75Z" fill="black" fill-opacity="0.3"/>
<rect id="Vector_9" x="1.5" y="6.21484" width="11.8125" height="11.5714" rx="1.5" fill="url(#paint1_linear_3062_74854)"/>
<path id="Vector_10" d="M10.0312 15.2137L8.18202 11.9352L9.95006 8.78516H8.50677L7.41527 10.7964L6.34182 8.78516H4.85341L6.63048 11.9352L4.78125 15.2137H6.22455L7.38821 13.0831L8.54285 15.2137H10.0312Z" fill="white"/>
</g>
<defs>
<linearGradient id="paint0_linear_3062_74854" x1="6.75" y1="18.75" x2="22.5" y2="18.75" gradientUnits="userSpaceOnUse">
<stop stop-color="#163C27"/>
<stop offset="1" stop-color="#2A6043"/>
</linearGradient>
<linearGradient id="paint1_linear_3062_74854" x1="1.5" y1="12.0006" x2="13.3125" y2="12.0006" gradientUnits="userSpaceOnUse">
<stop stop-color="#185A30"/>
<stop offset="1" stop-color="#176F3D"/>
</linearGradient>
</defs>
</svg>
