<svg width="66" height="64" viewBox="0 0 66 64" fill="none" xmlns="http://www.w3.org/2000/svg">
<g id="Empty States [HR Management] [1.0]">
<rect x="1.5" width="64" height="64" rx="32" fill="#FBEADE"/>
<path id="vector" d="M14.4946 22.021C14.9063 23.5577 13.6523 25.2288 11.6935 25.7537C11.2038 25.8849 10.7165 25.932 10.2545 25.9049" stroke="#ED955A" stroke-width="1.2973" stroke-linecap="round" stroke-linejoin="round"/>
<path id="vector_2" d="M17.9156 34.7877C18.3274 36.3244 17.0733 37.9956 15.1146 38.5204C14.6249 38.6516 14.1375 38.6988 13.6755 38.6716" stroke="#ED955A" stroke-width="1.2973" stroke-linecap="round" stroke-linejoin="round"/>
<path id="vector_3" d="M21.3363 47.5544C21.7481 49.0911 20.494 50.7623 18.5353 51.2871C18.0456 51.4183 17.5582 51.4655 17.0962 51.4384" stroke="#ED955A" stroke-width="1.2973" stroke-linecap="round" stroke-linejoin="round"/>
<path id="vector_4" d="M43.4156 9.53388L16.5656 16.7283C15.1843 17.0984 14.3647 18.5181 14.7348 19.8994L24.0863 54.7998C24.4564 56.1811 25.8761 57.0007 27.2574 56.6306L54.1073 49.4362C55.4886 49.0661 56.3083 47.6464 55.9382 46.2652L46.5866 11.3647C46.2165 9.98347 44.7968 9.16378 43.4156 9.53388Z" fill="white" stroke="#ED955A" stroke-width="0.432432" stroke-linecap="round" stroke-linejoin="round"/>
<path id="vector_5" d="M38.1771 7.18757L11.3271 14.382C9.94591 14.7521 9.12623 16.1718 9.49633 17.5531L18.8479 52.4535C19.218 53.8347 20.6377 54.6544 22.0189 54.2843L48.8689 47.0899C50.2501 46.7198 51.0698 45.3001 50.6997 43.9188L41.3482 9.01838C40.9781 7.63715 39.5583 6.81747 38.1771 7.18757Z" fill="#F6CAAD" stroke="#ED955A" stroke-width="0.432432" stroke-linecap="round" stroke-linejoin="round"/>
<path id="vector_6" d="M10.2546 25.9046C8.86855 25.8233 7.71041 25.0738 7.4016 23.9213C6.98986 22.3846 8.24391 20.7135 10.2027 20.1886C12.1614 19.6638 14.083 20.484 14.4948 22.0207" stroke="#ED955A" stroke-width="1.2973" stroke-linecap="round" stroke-linejoin="round"/>
<path id="vector_7" d="M13.6753 38.6713C12.2893 38.59 11.1311 37.8405 10.8223 36.688C10.4106 35.1514 11.6646 33.4802 13.6234 32.9553C15.5821 32.4305 17.5038 33.2507 17.9155 34.7874" stroke="#ED955A" stroke-width="1.2973" stroke-linecap="round" stroke-linejoin="round"/>
<path id="vector_8" d="M17.0961 51.4379C15.71 51.3566 14.5518 50.6071 14.243 49.4546C13.8313 47.918 15.0853 46.2468 17.0441 45.7219C19.0028 45.1971 20.9245 46.0173 21.3362 47.554" stroke="#ED955A" stroke-width="1.2973" stroke-linecap="round" stroke-linejoin="round"/>
<path id="vector_9" d="M22.9046 24.9414C25.2134 24.3228 26.5836 21.9495 25.965 19.6407C25.3463 17.3318 22.9731 15.9616 20.6642 16.5803C18.3553 17.1989 16.9851 19.5722 17.6038 21.881C18.2225 24.1899 20.5957 25.5601 22.9046 24.9414Z" fill="#F6CAAD" stroke="#ED955A" stroke-width="0.432432" stroke-linecap="round" stroke-linejoin="round"/>
<g id="vector_10">
<path d="M20.8821 23.2C20.8821 23.2 21.0965 22.4373 22.1574 22.153C23.2184 21.8688 23.7854 22.4221 23.7854 22.4221" fill="#F6CAAD"/>
<path d="M20.8821 23.2C20.8821 23.2 21.0965 22.4373 22.1574 22.153C23.2184 21.8688 23.7854 22.4221 23.7854 22.4221" stroke="#ED955A" stroke-width="0.432432" stroke-linecap="round" stroke-linejoin="round"/>
</g>
<path id="vector_11" d="M20.0826 20.9119C20.4171 20.8222 20.6157 20.4783 20.5261 20.1437C20.4364 19.8091 20.0925 19.6106 19.7579 19.7002C19.4233 19.7899 19.2247 20.1338 19.3144 20.4684C19.4041 20.803 19.748 21.0015 20.0826 20.9119Z" fill="#ED955A" stroke="#ED955A" stroke-width="0.432432" stroke-linecap="round" stroke-linejoin="round"/>
<path id="vector_12" d="M23.3337 20.0407C23.6683 19.951 23.8668 19.6071 23.7772 19.2725C23.6875 18.9379 23.3436 18.7393 23.009 18.829C22.6744 18.9187 22.4759 19.2626 22.5655 19.5972C22.6552 19.9318 22.9991 20.1303 23.3337 20.0407Z" fill="#ED955A" stroke="#ED955A" stroke-width="0.432432" stroke-linecap="round" stroke-linejoin="round"/>
<path id="vector_13" d="M29.0062 47.7129C31.3151 47.0942 32.6852 44.721 32.0666 42.4121C31.4479 40.1033 29.0747 38.7331 26.7658 39.3517C24.4569 39.9704 23.0868 42.3436 23.7054 44.6525C24.3241 46.9614 26.6973 48.3316 29.0062 47.7129Z" fill="#F6CAAD" stroke="#ED955A" stroke-width="0.432432" stroke-linecap="round" stroke-linejoin="round"/>
<g id="vector_14">
<path d="M26.8075 45.3136C26.8075 45.3136 27.3744 45.8669 28.4354 45.5826C29.4963 45.2983 29.7107 44.5357 29.7107 44.5357" fill="#F6CAAD"/>
<path d="M26.8075 45.3136C26.8075 45.3136 27.3744 45.8669 28.4354 45.5826C29.4963 45.2983 29.7107 44.5357 29.7107 44.5357" stroke="#ED955A" stroke-width="0.432432" stroke-linecap="round" stroke-linejoin="round"/>
</g>
<path id="vector_15" d="M26.1842 43.6834C26.5188 43.5937 26.7173 43.2498 26.6277 42.9152C26.538 42.5806 26.1941 42.382 25.8595 42.4717C25.5249 42.5614 25.3264 42.9053 25.416 43.2399C25.5057 43.5745 25.8496 43.773 26.1842 43.6834Z" fill="#ED955A" stroke="#ED955A" stroke-width="0.432432" stroke-linecap="round" stroke-linejoin="round"/>
<path id="vector_16" d="M29.435 42.8123C29.7696 42.7226 29.9682 42.3787 29.8785 42.0441C29.7889 41.7095 29.4449 41.511 29.1103 41.6006C28.7758 41.6903 28.5772 42.0342 28.6668 42.3688C28.7565 42.7034 29.1004 42.9019 29.435 42.8123Z" fill="#ED955A" stroke="#ED955A" stroke-width="0.432432" stroke-linecap="round" stroke-linejoin="round"/>
<path id="vector_17" d="M25.8673 35.9982C28.1762 35.3795 29.5464 33.0063 28.9277 30.6974C28.309 28.3885 25.9358 27.0184 23.6269 27.637C21.3181 28.2557 19.9479 30.6289 20.5665 32.9378C21.1852 35.2467 23.5584 36.6168 25.8673 35.9982Z" fill="#F6CAAD" stroke="#ED955A" stroke-width="0.432432" stroke-linecap="round" stroke-linejoin="round"/>
<path id="vector_18" d="M23.0453 31.9686C23.3799 31.879 23.5785 31.5351 23.4888 31.2005C23.3992 30.8659 23.0553 30.6673 22.7207 30.757C22.3861 30.8466 22.1875 31.1905 22.2772 31.5251C22.3668 31.8597 22.7107 32.0583 23.0453 31.9686Z" fill="#ED955A" stroke="#ED955A" stroke-width="0.432432" stroke-linecap="round" stroke-linejoin="round"/>
<path id="vector_19" d="M26.2965 31.0974C26.6311 31.0078 26.8297 30.6639 26.74 30.3293C26.6504 29.9947 26.3064 29.7961 25.9719 29.8858C25.6373 29.9754 25.4387 30.3193 25.5284 30.6539C25.618 30.9885 25.9619 31.1871 26.2965 31.0974Z" fill="#ED955A" stroke="#ED955A" stroke-width="0.432432" stroke-linecap="round" stroke-linejoin="round"/>
<path id="vector_20" d="M23.7899 33.8441L26.5894 33.094" stroke="#ED955A" stroke-width="0.432432" stroke-linecap="round" stroke-linejoin="round"/>
<path id="vector_21" d="M37.6776 14.8985L28.2689 17.4195C28.0295 17.4836 27.8875 17.7297 27.9516 17.9691L28.3197 19.3429C28.3838 19.5823 28.6299 19.7244 28.8693 19.6602L38.278 17.1392C38.5174 17.075 38.6595 16.8289 38.5953 16.5895L38.2272 15.2158C38.1631 14.9764 37.917 14.8343 37.6776 14.8985Z" fill="white"/>
<path id="vector_22" d="M40.7407 26.3309L31.332 28.852C31.0926 28.9161 30.9505 29.1622 31.0147 29.4016L31.3828 30.7754C31.4469 31.0148 31.693 31.1569 31.9324 31.0927L41.3411 28.5717C41.5805 28.5075 41.7225 28.2614 41.6584 28.022L41.2903 26.6483C41.2261 26.4089 40.9801 26.2668 40.7407 26.3309Z" fill="white"/>
<path id="vector_23" d="M43.8044 37.7638L34.3957 40.2849C34.1563 40.349 34.0142 40.5951 34.0784 40.8345L34.4465 42.2082C34.5106 42.4476 34.7567 42.5897 34.9961 42.5256L44.4048 40.0045C44.6442 39.9404 44.7862 39.6943 44.7221 39.4549L44.354 38.0811C44.2898 37.8417 44.0438 37.6997 43.8044 37.7638Z" fill="white"/>
<path id="vector_24" d="M43.2615 57.1226L61.3524 52.3701C61.4028 52.3569 61.4494 52.3415 61.496 52.3261C61.4997 52.3282 61.5027 52.3275 61.5049 52.3237C61.5627 52.3148 61.619 52.3001 61.6753 52.2853C63.5709 51.7873 64.7021 49.85 64.2041 47.9545C63.9022 46.8053 63.0696 45.938 62.0376 45.541C61.372 45.2852 60.6196 45.2296 59.8732 45.4257L41.5887 47.6453C43.9036 47.4298 46.0968 48.9086 46.706 51.2277C47.383 53.8045 45.8412 56.4449 43.2615 57.1226Z" fill="#FBEADE" stroke="#ED955A" stroke-width="0.432432" stroke-linecap="round" stroke-linejoin="round"/>
<path id="vector_25" d="M32.7531 36.0783L37.3671 53.6807C38.044 56.2575 40.6844 57.7993 43.2612 57.1224C45.841 56.4447 47.3828 53.8043 46.7058 51.2275C46.0966 48.9084 43.9033 47.4296 41.5884 47.6451L59.873 45.4255C60.6194 45.2294 61.3717 45.285 62.0374 45.5408L57.8311 29.4904C57.4942 28.2079 56.1815 27.4414 54.902 27.7776L34.4622 33.147C33.1798 33.484 32.4162 34.7959 32.7531 36.0783Z" fill="#FBEADE" stroke="#ED955A" stroke-width="0.432432" stroke-linecap="round" stroke-linejoin="round"/>
<path id="vector_26" d="M53.3846 33.1482L50.5887 37.91" stroke="#ED955A" stroke-width="0.432432" stroke-linecap="round" stroke-linejoin="round"/>
<path id="vector_27" d="M49.606 34.1313L54.3679 36.9273" stroke="#ED955A" stroke-width="0.432432" stroke-linecap="round" stroke-linejoin="round"/>
<path id="vector_28" d="M41.8406 36.151L39.0446 40.9128" stroke="#ED955A" stroke-width="0.432432" stroke-linecap="round" stroke-linejoin="round"/>
<path id="vector_29" d="M38.062 37.1337L42.8239 39.9297" stroke="#ED955A" stroke-width="0.432432" stroke-linecap="round" stroke-linejoin="round"/>
<path id="vector_30" d="M53.0206 41.4254L43.2225 43.9739" stroke="#ED955A" stroke-width="0.432432" stroke-linecap="round" stroke-linejoin="round"/>
<path id="vector_31" d="M6.11731 38.4865C6.11731 38.4865 3.79423 41.2118 6.50234 43.5362C3.79419 41.2118 1.45264 43.9212 1.45264 43.9212C1.45264 43.9212 3.77572 41.1959 1.06757 38.8715C3.77572 41.1959 6.11731 38.4865 6.11731 38.4865Z" fill="#F6CAAD" stroke="#ED955A" stroke-width="0.432432" stroke-linecap="round" stroke-linejoin="round"/>
<path id="vector_32" d="M63.6308 14.2703C63.6308 14.2703 61.3078 16.9956 64.0159 19.32C61.3077 16.9956 58.9662 19.705 58.9662 19.705C58.9662 19.705 61.2892 16.9797 58.5811 14.6553C61.2892 16.9797 63.6308 14.2703 63.6308 14.2703Z" fill="#F6CAAD" stroke="#ED955A" stroke-width="0.432432" stroke-linecap="round" stroke-linejoin="round"/>
</g>
</svg>
