<svg width="24" height="24" viewBox="0 0 24 24" fill="none" xmlns="http://www.w3.org/2000/svg">
<g id="folder-open-line">
<path id="Vector" d="M3.9 20.1004C3.66131 20.1004 3.43239 20.0056 3.2636 19.8368C3.09482 19.668 3 19.4391 3 19.2004V4.80039C3 4.5617 3.09482 4.33278 3.2636 4.16399C3.43239 3.99521 3.66131 3.90039 3.9 3.90039H10.5726L12.3726 5.70039H19.2C19.4387 5.70039 19.6676 5.79521 19.8364 5.96399C20.0052 6.13278 20.1 6.3617 20.1 6.60039V9.30039H18.3V7.50039H11.6274L9.8274 5.70039H4.8V16.4986L6.15 11.1004H21.45L19.371 19.4191C19.3222 19.6137 19.2099 19.7865 19.0517 19.9099C18.8935 20.0333 18.6986 20.1004 18.498 20.1004H3.9ZM19.1442 12.9004H7.5558L6.2058 18.3004H17.7942L19.1442 12.9004Z" fill="#525866"/>
</g>
</svg>
