<svg width="24" height="24" viewBox="0 0 24 24" fill="none" xmlns="http://www.w3.org/2000/svg">
<g id="file-mark-line">
<path id="Vector" d="M8.00039 4.8V4.3H7.50039H5.70039H5.20039V4.8V19.2V19.7H5.70039H18.3004H18.8004V19.2V4.8V4.3H18.3004H13.8004H13.3004V4.8V12.0384L10.8985 10.6659L10.6504 10.5241L10.4023 10.6659L8.00039 12.0384V4.8ZM19.2004 20.5H4.80039C4.6943 20.5 4.59256 20.4579 4.51755 20.3828C4.44253 20.3078 4.40039 20.2061 4.40039 20.1V3.9C4.40039 3.79391 4.44253 3.69217 4.51755 3.61716C4.59256 3.54214 4.6943 3.5 4.80039 3.5H19.2004C19.3065 3.5 19.4082 3.54214 19.4832 3.61716C19.5582 3.69217 19.6004 3.79391 19.6004 3.9V20.1C19.6004 20.2061 19.5582 20.3078 19.4832 20.3828C19.4082 20.4579 19.3065 20.5 19.2004 20.5Z" fill="#0A0D14" stroke="#0A0D14"/>
</g>
</svg>
