<svg width="24" height="24" viewBox="0 0 24 24" fill="none" xmlns="http://www.w3.org/2000/svg">
<g id="folder-shield-2-line">
<path id="Vector" d="M4.8 18.8004H11.193C11.3463 19.0845 11.5265 19.3524 11.7307 19.6004H3.9C3.79391 19.6004 3.69217 19.5582 3.61716 19.4832C3.54214 19.4082 3.5 19.3065 3.5 19.2004V4.80039C3.5 4.6943 3.54214 4.59256 3.61716 4.51755C3.69217 4.44253 3.79391 4.40039 3.9 4.40039H10.3655L12.019 6.05394L12.1655 6.20039H12.3726H20.1C20.2061 6.20039 20.3078 6.24253 20.3828 6.31755C20.4579 6.39256 20.5 6.4943 20.5 6.60039V8.80039H19.7V7.50039V7.00039H19.2H11.8345L10.181 5.34684L10.0345 5.20039H9.8274H4.8H4.3V5.70039V18.3004V18.8004H4.8ZM13.4 16.4542L13.4 11.6004H20.5V16.4545C20.5 17.1758 20.135 17.8528 19.5229 18.2552L19.5226 18.2554L16.95 19.9499L14.3774 18.2554L14.3762 18.2546C14.0771 18.0589 13.8313 17.7919 13.6609 17.4776C13.4905 17.1635 13.4009 16.8119 13.4 16.4546C13.4 16.4545 13.4 16.4543 13.4 16.4542ZM14.8168 17.5872L14.8173 17.5875L16.6749 18.8115L16.95 18.9928L17.2251 18.8115L19.0791 17.5899C19.0798 17.5894 19.0804 17.589 19.0811 17.5886C19.2695 17.4663 19.4246 17.2992 19.5326 17.1023C19.641 16.9046 19.6985 16.6831 19.7 16.4577V16.4545V12.9004V12.4004H19.2H14.7H14.2V12.9004V16.4545C14.2 16.9122 14.4346 17.3347 14.8168 17.5872Z" fill="#0A0D14" stroke="#0A0D14"/>
</g>
</svg>
