<svg width="149" height="148" viewBox="0 0 149 148" fill="none" xmlns="http://www.w3.org/2000/svg">
<rect x="0.5" width="148" height="148" rx="74" fill="#FBEADE"/>
<rect x="47.0703" y="39.7578" width="65.5709" height="76.9585" rx="5.41989" fill="#F6CAAD" stroke="#ED955A" stroke-linecap="round" stroke-linejoin="round"/>
<rect x="36.3594" y="31.2852" width="65.5709" height="76.9585" rx="5.41989" fill="white" stroke="#ED955A" stroke-linecap="round" stroke-linejoin="round"/>
<path d="M52.3086 65.5312L60.5935 73.8678" stroke="#ED955A" stroke-linecap="round" stroke-linejoin="round"/>
<path d="M60.6199 65.5586L52.2832 73.8437" stroke="#ED955A" stroke-linecap="round" stroke-linejoin="round"/>
<path d="M77.6953 65.6094L85.9804 73.9458" stroke="#ED955A" stroke-linecap="round" stroke-linejoin="round"/>
<path d="M86.0065 65.6367L77.6699 73.9218" stroke="#ED955A" stroke-linecap="round" stroke-linejoin="round"/>
<path d="M57.4414 82.4023L78.9898 82.4689" stroke="#ED955A" stroke-linecap="round" stroke-linejoin="round"/>
<path d="M52.1303 50.404C52.097 50.4087 52.063 50.4018 52.0341 50.3846L47.1438 46.8476C47.0989 46.8175 47.0404 46.8175 46.9955 46.8476L42.1052 50.3846C42.0345 50.4256 41.9438 50.4013 41.9027 50.3306C41.8889 50.3063 41.882 50.279 41.8829 50.2512V38.6316C41.8829 37.8125 42.5464 37.1484 43.3649 37.1484H50.7744C51.5928 37.1484 52.2564 37.8125 52.2564 38.6316V50.2362C52.2677 50.3174 52.2115 50.3924 52.1303 50.404Z" fill="#F6CAAD" stroke="#ED955A" stroke-linecap="round" stroke-linejoin="round"/>
<path d="M35.79 111.381C42.02 111.381 47.0703 106.331 47.0703 100.101C47.0703 93.8707 42.02 88.8203 35.79 88.8203C29.5601 88.8203 24.5098 93.8707 24.5098 100.101C24.5098 106.331 29.5601 111.381 35.79 111.381Z" fill="#F6CAAD" stroke="#ED955A" stroke-linecap="round" stroke-linejoin="round"/>
<path fill-rule="evenodd" clip-rule="evenodd" d="M39.8969 100.902C39.5821 101.391 39.163 101.872 38.6426 102.353C37.8134 103.082 36.9283 103.745 35.9947 104.332L35.792 104.459L35.5892 104.335C34.6481 103.756 33.7584 103.092 32.9263 102.344C32.0094 101.473 31.3754 100.551 31.1016 99.5964C32.0896 98.8581 33.4165 98.5569 34.6073 98.8974C35.4062 99.1259 36.1097 99.5979 36.8193 100.029C37.5305 100.462 38.287 100.869 39.1146 100.948C39.3734 100.972 39.6397 100.957 39.8969 100.902Z" fill="#ED955A" stroke="#ED955A" stroke-linecap="round" stroke-linejoin="round"/>
<path fill-rule="evenodd" clip-rule="evenodd" d="M40.6327 98.5346C40.6327 99.3714 40.3876 100.148 39.8973 100.904C39.6401 100.959 39.3738 100.974 39.1151 100.949C38.2875 100.871 37.5309 100.464 36.8198 100.031C36.1102 99.5998 35.3306 99.8268 34.5317 99.5983C33.3409 99.2579 32.0901 98.8599 31.102 99.5983C31.0007 99.2473 30.9492 98.8917 30.9492 98.5331C30.9522 97.2516 31.8147 96.1349 33.0433 95.8293C34.0676 95.5736 35.1267 95.9383 35.7909 96.7265C36.3054 96.1122 37.0665 95.7461 37.882 95.7461H37.8865C38.6143 95.7461 39.3118 96.0396 39.8262 96.5616C40.3437 97.0851 40.6327 97.7948 40.6327 98.5346Z" fill="#FBEADE" stroke="#ED955A" stroke-linecap="round" stroke-linejoin="round"/>
<path d="M74.4995 46.0732C82.0931 46.0732 88.2489 39.9173 88.2489 32.3237C88.2489 24.7301 82.0931 18.5742 74.4995 18.5742C66.9058 18.5742 60.75 24.7301 60.75 32.3237C60.75 39.9173 66.9058 46.0732 74.4995 46.0732Z" fill="#F6CAAD" stroke="#ED955A" stroke-linecap="round" stroke-linejoin="round"/>
<path d="M79.5418 33.448C79.5418 36.3096 77.2842 38.6295 74.4994 38.6295C71.7147 38.6295 69.457 36.3096 69.457 33.448C69.457 32.099 69.9611 30.8682 70.7852 29.9464L70.9826 29.7377L74.4994 26.0234L78.0412 29.7632L78.2156 29.9464C79.0378 30.8682 79.5418 32.099 79.5418 33.448Z" fill="#ED955A"/>
<path d="M107.486 72.5458C113.407 72.5458 118.208 67.7453 118.208 61.8237C118.208 55.902 113.407 51.1016 107.486 51.1016C101.564 51.1016 96.7637 55.902 96.7637 61.8237C96.7637 67.7453 101.564 72.5458 107.486 72.5458Z" fill="white" stroke="#ED955A" stroke-linecap="round" stroke-linejoin="round"/>
<path d="M107.486 63.4837C109.18 63.4837 110.554 62.1101 110.554 60.4157C110.554 58.7212 109.18 57.3477 107.486 57.3477C105.792 57.3477 104.418 58.7212 104.418 60.4157C104.418 62.1101 105.792 63.4837 107.486 63.4837Z" fill="#ED955A"/>
<mask id="mask0_4090_47044" style="mask-type:alpha" maskUnits="userSpaceOnUse" x="96" y="50" width="23" height="24">
<path d="M107.488 72.5458C113.409 72.5458 118.21 67.7453 118.21 61.8237C118.21 55.902 113.409 51.1016 107.488 51.1016C101.566 51.1016 96.7656 55.902 96.7656 61.8237C96.7656 67.7453 101.566 72.5458 107.488 72.5458Z" fill="#E3E4E6" stroke="#8A8E92" stroke-linecap="round" stroke-linejoin="round"/>
</mask>
<g mask="url(#mask0_4090_47044)">
<path d="M107.487 78.1819C111.546 78.1819 114.836 74.8917 114.836 70.8331C114.836 66.7745 111.546 63.4844 107.487 63.4844C103.429 63.4844 100.139 66.7745 100.139 70.8331C100.139 74.8917 103.429 78.1819 107.487 78.1819Z" fill="#ED955A"/>
</g>
<path d="M26.0708 42.7019C26.0708 42.7019 20.0635 40.9122 18.2596 46.8931C20.0634 40.9123 14.0684 39.0819 14.0684 39.0819C14.0684 39.0819 20.0758 40.8714 21.8796 34.8906C20.0758 40.8714 26.0708 42.7019 26.0708 42.7019Z" fill="white" stroke="#ED955A" stroke-linecap="round" stroke-linejoin="round"/>
<path d="M136.105 96.2384C136.105 96.2384 130.975 102.257 136.956 107.39C130.975 102.257 125.804 108.241 125.804 108.241C125.804 108.241 130.934 102.222 124.953 97.0886C130.934 102.222 136.105 96.2384 136.105 96.2384Z" fill="white" stroke="#ED955A" stroke-linecap="round" stroke-linejoin="round"/>
</svg>
