<svg width="24" height="24" viewBox="0 0 24 24" fill="none" xmlns="http://www.w3.org/2000/svg">
<g id="folder-open-line">
<path id="Vector" d="M3.9 20.1C3.66131 20.1 3.43239 20.0052 3.2636 19.8364C3.09482 19.6676 3 19.4387 3 19.2V4.80002C3 4.56133 3.09482 4.33241 3.2636 4.16363C3.43239 3.99485 3.66131 3.90002 3.9 3.90002H10.5726L12.3726 5.70002H19.2C19.4387 5.70002 19.6676 5.79485 19.8364 5.96363C20.0052 6.13241 20.1 6.36133 20.1 6.60002V9.30002H18.3V7.50002H11.6274L9.8274 5.70002H4.8V16.4982L6.15 11.1H21.45L19.371 19.4187C19.3222 19.6133 19.2099 19.7861 19.0517 19.9095C18.8935 20.033 18.6986 20.1 18.498 20.1H3.9ZM19.1442 12.9H7.5558L6.2058 18.3H17.7942L19.1442 12.9Z" fill="#868C98"/>
</g>
</svg>
