<svg width="24" height="24" viewBox="0 0 24 24" fill="none" xmlns="http://www.w3.org/2000/svg">
<g id="file-edit-line">
<path id="Vector" d="M20.0999 7.2813L18.2999 9.0813V4.8H10.1999V9.3H5.69992V19.2H18.2999V16.7187L20.0999 14.9187V20.1072C20.0997 20.3441 20.0054 20.5712 19.8378 20.7386C19.6703 20.906 19.4431 21 19.2062 21H4.79362C4.67543 20.9992 4.55856 20.9751 4.44969 20.9291C4.34081 20.8831 4.24206 20.8161 4.15907 20.7319C4.07608 20.6478 4.01048 20.5481 3.96602 20.4386C3.92155 20.3291 3.89909 20.2119 3.89992 20.0937V8.4L9.30262 3H19.1981C19.6949 3 20.0999 3.4095 20.0999 3.8928V7.2813ZM20.8001 9.1263L22.0727 10.3998L15.0725 17.4L13.7981 17.3982L13.7999 16.1274L20.8001 9.1272V9.1263Z" fill="white"/>
</g>
</svg>
