<svg width="32" height="32" viewBox="0 0 32 32" fill="none" xmlns="http://www.w3.org/2000/svg">
<g id="home-5-line">
<path id="Vector" d="M17.1992 24.3995H24.3992V13.5731L15.9992 7.04034L7.59922 13.5731V24.3995H14.7992V17.1995H17.1992V24.3995ZM26.7992 25.5995C26.7992 25.9178 26.6728 26.223 26.4477 26.4481C26.2227 26.6731 25.9175 26.7995 25.5992 26.7995H6.39922C6.08096 26.7995 5.77573 26.6731 5.55069 26.4481C5.32565 26.223 5.19922 25.9178 5.19922 25.5995V12.9875C5.19909 12.8047 5.24076 12.6242 5.32104 12.4599C5.40132 12.2956 5.51808 12.1518 5.66242 12.0395L15.2624 4.57315C15.4731 4.40928 15.7323 4.32031 15.9992 4.32031C16.2661 4.32031 16.5254 4.40928 16.736 4.57315L26.336 12.0395C26.4804 12.1518 26.5971 12.2956 26.6774 12.4599C26.7577 12.6242 26.7993 12.8047 26.7992 12.9875V25.5995Z" fill="#868C98"/>
</g>
</svg>
