<svg width="20" height="20" viewBox="0 0 20 20" fill="none" xmlns="http://www.w3.org/2000/svg">
<g id="home-line">
<path id="Vector" d="M16.75 16.0007C16.75 16.1996 16.671 16.3904 16.5303 16.531C16.3897 16.6717 16.1989 16.7507 16 16.7507H4C3.80109 16.7507 3.61032 16.6717 3.46967 16.531C3.32902 16.3904 3.25 16.1996 3.25 16.0007V8.11819C3.24992 8.0039 3.27596 7.8911 3.32614 7.78842C3.37631 7.68573 3.44929 7.59587 3.5395 7.52569L9.5395 2.85919C9.67116 2.75678 9.8332 2.70117 10 2.70117C10.1668 2.70117 10.3288 2.75678 10.4605 2.85919L16.4605 7.52569C16.5507 7.59587 16.6237 7.68573 16.6739 7.78842C16.724 7.8911 16.7501 8.0039 16.75 8.11819V16.0007ZM15.25 15.2507V8.48419L10 4.40119L4.75 8.48419V15.2507H15.25Z" fill="#868C98"/>
</g>
</svg>
