<svg width="376" height="352" viewBox="0 0 376 352" fill="none" xmlns="http://www.w3.org/2000/svg">
<rect x="40" y="16" width="320" height="320" rx="64" fill="url(#paint0_radial_206_48573)"/>
<g filter="url(#filter0_d_206_48573)">
<path d="M241.513 156.069C244.306 154.147 248.007 154.194 250.75 156.187L299.231 191.411C308.165 197.901 307.993 211.276 298.897 217.536L171.911 304.918C169.118 306.84 165.416 306.792 162.673 304.799L105.045 262.93C100.578 259.685 100.664 252.998 105.212 249.868L241.513 156.069Z" fill="url(#paint1_linear_206_48573)"/>
</g>
<g filter="url(#filter1_d_206_48573)">
<path d="M228.618 46.9395C231.411 45.0173 235.113 45.0647 237.856 47.0576L286.337 82.2809C295.27 88.7715 295.099 102.146 286.002 108.406L159.016 195.788C156.223 197.71 152.522 197.663 149.779 195.67L92.1506 153.8C87.6839 150.555 87.7694 143.868 92.3176 140.738L228.618 46.9395Z" fill="url(#paint2_linear_206_48573)"/>
</g>
<defs>
<filter id="filter0_d_206_48573" x="13.7461" y="106.659" width="380.082" height="327.668" filterUnits="userSpaceOnUse" color-interpolation-filters="sRGB">
<feFlood flood-opacity="0" result="BackgroundImageFix"/>
<feColorMatrix in="SourceAlpha" type="matrix" values="0 0 0 0 0 0 0 0 0 0 0 0 0 0 0 0 0 0 127 0" result="hardAlpha"/>
<feMorphology radius="8" operator="erode" in="SourceAlpha" result="effect1_dropShadow_206_48573"/>
<feOffset dy="40"/>
<feGaussianBlur stdDeviation="48"/>
<feComposite in2="hardAlpha" operator="out"/>
<feColorMatrix type="matrix" values="0 0 0 0 0.345098 0 0 0 0 0.360784 0 0 0 0 0.372549 0 0 0 0.2 0"/>
<feBlend mode="normal" in2="BackgroundImageFix" result="effect1_dropShadow_206_48573"/>
<feBlend mode="normal" in="SourceGraphic" in2="effect1_dropShadow_206_48573" result="shape"/>
</filter>
<filter id="filter1_d_206_48573" x="0.851562" y="-2.47034" width="380.082" height="327.668" filterUnits="userSpaceOnUse" color-interpolation-filters="sRGB">
<feFlood flood-opacity="0" result="BackgroundImageFix"/>
<feColorMatrix in="SourceAlpha" type="matrix" values="0 0 0 0 0 0 0 0 0 0 0 0 0 0 0 0 0 0 127 0" result="hardAlpha"/>
<feMorphology radius="8" operator="erode" in="SourceAlpha" result="effect1_dropShadow_206_48573"/>
<feOffset dy="40"/>
<feGaussianBlur stdDeviation="48"/>
<feComposite in2="hardAlpha" operator="out"/>
<feColorMatrix type="matrix" values="0 0 0 0 0.345098 0 0 0 0 0.360784 0 0 0 0 0.372549 0 0 0 0.2 0"/>
<feBlend mode="normal" in2="BackgroundImageFix" result="effect1_dropShadow_206_48573"/>
<feBlend mode="normal" in="SourceGraphic" in2="effect1_dropShadow_206_48573" result="shape"/>
</filter>
<radialGradient id="paint0_radial_206_48573" cx="0" cy="0" r="1" gradientUnits="userSpaceOnUse" gradientTransform="translate(200 176) rotate(90) scale(160)">
<stop stop-color="#6DAED6"/>
<stop offset="1" stop-color="#4B7A98"/>
</radialGradient>
<linearGradient id="paint1_linear_206_48573" x1="275.893" y1="174.63" x2="135.662" y2="287.06" gradientUnits="userSpaceOnUse">
<stop stop-color="#102433"/>
<stop offset="1" stop-color="#30566A"/>
</linearGradient>
<linearGradient id="paint2_linear_206_48573" x1="262.999" y1="65.5" x2="122.767" y2="177.93" gradientUnits="userSpaceOnUse">
<stop stop-color="#102433"/>
<stop offset="1" stop-color="#30566A"/>
</linearGradient>
</defs>
</svg>
