<svg width="24" height="24" viewBox="0 0 24 24" fill="none" xmlns="http://www.w3.org/2000/svg">
<g id="link-m">
<path id="Vector" d="M17.0914 14.5452L15.8188 13.2726L17.0914 12C17.4257 11.6657 17.6908 11.2688 17.8718 10.832C18.0527 10.3953 18.1458 9.92712 18.1458 9.45435C18.1458 8.98158 18.0527 8.51344 17.8718 8.07666C17.6908 7.63987 17.4257 7.243 17.0914 6.9087C16.7571 6.5744 16.3602 6.30922 15.9234 6.1283C15.4866 5.94738 15.0185 5.85426 14.5457 5.85426C14.0729 5.85426 13.6048 5.94738 13.168 6.1283C12.7312 6.30922 12.3344 6.5744 12.0001 6.9087L10.7275 8.1813L9.45486 6.9087L10.7275 5.6361C11.7429 4.63703 13.1121 4.07969 14.5366 4.08549C15.9611 4.09129 17.3257 4.65976 18.333 5.66707C19.3403 6.67438 19.9088 8.03892 19.9146 9.46346C19.9204 10.888 19.363 12.2571 18.364 13.2726L17.0914 14.5452ZM14.5453 17.0913L13.2727 18.3639C12.7727 18.872 12.1771 19.2762 11.5202 19.553C10.8633 19.8298 10.1581 19.9738 9.4453 19.9767C8.73247 19.9796 8.02612 19.8413 7.36699 19.5699C6.70786 19.2984 6.10899 18.8992 5.60494 18.3951C5.10089 17.8911 4.70162 17.2922 4.43017 16.6331C4.15872 15.9739 4.02046 15.2676 4.02336 14.5548C4.02626 13.8419 4.17027 13.1367 4.44708 12.4798C4.72389 11.8229 5.12802 11.2273 5.63616 10.7274L6.90876 9.4548L8.18136 10.7274L6.90876 12C6.57446 12.3343 6.30928 12.7312 6.12836 13.168C5.94744 13.6047 5.85432 14.0729 5.85432 14.5457C5.85432 15.0184 5.94744 15.4866 6.12836 15.9234C6.30928 16.3601 6.57446 16.757 6.90876 17.0913C7.24306 17.4256 7.63993 17.6908 8.07671 17.8717C8.5135 18.0526 8.98164 18.1457 9.45441 18.1457C9.92718 18.1457 10.3953 18.0526 10.8321 17.8717C11.2689 17.6908 11.6658 17.4256 12.0001 17.0913L13.2727 15.8187L14.5453 17.0913ZM14.5453 8.1813L15.8188 9.4548L9.45486 15.8178L8.18136 14.5452L14.5453 8.1822V8.1813Z" fill="#525866"/>
</g>
</svg>
