<svg width="20" height="20" viewBox="0 0 20 20" fill="none" xmlns="http://www.w3.org/2000/svg">
<g id="mail-check-line">
<path id="Vector" d="M17.5 11.5H16V6.4285L10.054 11.7535L4 6.412V15.25H11.5V16.75H3.25C3.05109 16.75 2.86032 16.671 2.71967 16.5303C2.57902 16.3897 2.5 16.1989 2.5 16V4C2.5 3.80109 2.57902 3.61032 2.71967 3.46967C2.86032 3.32902 3.05109 3.25 3.25 3.25H16.75C16.9489 3.25 17.1397 3.32902 17.2803 3.46967C17.421 3.61032 17.5 3.80109 17.5 4V11.5ZM4.38325 4.75L10.0458 9.7465L15.6265 4.75H4.38325ZM15.25 17.5L12.598 14.848L13.6593 13.7875L15.25 15.379L17.902 12.727L18.9625 13.7875L15.25 17.5Z" fill="#868C98"/>
</g>
</svg>
