<svg width="24" height="24" viewBox="0 0 24 24" fill="none" xmlns="http://www.w3.org/2000/svg">
<g id="more-fill">
<path id="Vector" d="M4.40002 12C4.40002 11.2861 4.98617 10.7 5.70002 10.7C6.41388 10.7 7.00002 11.2861 7.00002 12C7.00002 12.7138 6.41388 13.3 5.70002 13.3C4.98617 13.3 4.40002 12.7138 4.40002 12ZM17 12C17 11.2861 17.5862 10.7 18.3 10.7C19.0139 10.7 19.6 11.2861 19.6 12C19.6 12.7138 19.0139 13.3 18.3 13.3C17.5862 13.3 17 12.7138 17 12ZM10.7 12C10.7 11.2861 11.2862 10.7 12 10.7C12.7139 10.7 13.3 11.2861 13.3 12C13.3 12.7138 12.7139 13.3 12 13.3C11.2862 13.3 10.7 12.7138 10.7 12Z" fill="#525866" stroke="#525866"/>
</g>
</svg>
