<svg width="20" height="20" viewBox="0 0 20 20" fill="none" xmlns="http://www.w3.org/2000/svg">
<g id="mail-send-line">
<path id="Vector" d="M17.5 16.0052C17.4986 16.2022 17.4198 16.3907 17.2806 16.5301C17.1414 16.6694 16.953 16.7484 16.756 16.75H3.244C3.04661 16.7498 2.85737 16.6712 2.71787 16.5316C2.57836 16.392 2.5 16.2026 2.5 16.0052V15.25H16V6.475L10 11.875L2.5 5.125V4C2.5 3.80109 2.57902 3.61032 2.71967 3.46967C2.86032 3.32902 3.05109 3.25 3.25 3.25H16.75C16.9489 3.25 17.1397 3.32902 17.2803 3.46967C17.421 3.61032 17.5 3.80109 17.5 4V16.0052ZM4.3255 4.75L10 9.8575L15.6745 4.75H4.3255ZM1 12.25H7V13.75H1V12.25ZM1 8.5H4.75V10H1V8.5Z" fill="#525866"/>
</g>
</svg>
