<svg width="12" height="12" viewBox="0 0 12 12" fill="none" xmlns="http://www.w3.org/2000/svg">
<g id="map-pin-2-fill">
<path id="Vector" d="M8.86375 8.41376L5.99995 11.2776L3.13615 8.41376C2.56976 7.84736 2.18404 7.12572 2.02777 6.3401C1.8715 5.55448 1.95171 4.74016 2.25825 4.00012C2.56478 3.26008 3.08388 2.62756 3.7499 2.18254C4.41592 1.73753 5.19894 1.5 5.99995 1.5C6.80096 1.5 7.58399 1.73753 8.25001 2.18254C8.91602 2.62756 9.43512 3.26008 9.74166 4.00012C10.0482 4.74016 10.1284 5.55448 9.97214 6.3401C9.81587 7.12572 9.43015 7.84736 8.86375 8.41376ZM5.99995 6.44996C6.23865 6.44996 6.46757 6.35514 6.63635 6.18636C6.80513 6.01758 6.89995 5.78866 6.89995 5.54996C6.89995 5.31127 6.80513 5.08235 6.63635 4.91357C6.46757 4.74479 6.23865 4.64996 5.99995 4.64996C5.76126 4.64996 5.53234 4.74479 5.36356 4.91357C5.19477 5.08235 5.09995 5.31127 5.09995 5.54996C5.09995 5.78866 5.19477 6.01758 5.36356 6.18636C5.53234 6.35514 5.76126 6.44996 5.99995 6.44996Z" fill="#868C98"/>
</g>
</svg>
