<svg width="24" height="24" viewBox="0 0 24 24" fill="none" xmlns="http://www.w3.org/2000/svg">
<g id="notification-4-line">
<path id="Vector" d="M17.4016 10.2C17.4016 8.76783 16.8326 7.39432 15.8199 6.38162C14.8072 5.36893 13.4337 4.8 12.0016 4.8C10.5694 4.8 9.19588 5.36893 8.18319 6.38162C7.17049 7.39432 6.60156 8.76783 6.60156 10.2V17.4H17.4016V10.2ZM19.2016 18.0003L19.5616 18.48C19.6117 18.5469 19.6422 18.6264 19.6497 18.7096C19.6573 18.7928 19.6414 18.8765 19.6041 18.9512C19.5667 19.026 19.5092 19.0889 19.4381 19.1328C19.3671 19.1767 19.2851 19.2 19.2016 19.2H4.80156C4.71799 19.2 4.63607 19.1767 4.56498 19.1328C4.49389 19.0889 4.43644 19.026 4.39907 18.9512C4.3617 18.8765 4.34588 18.7928 4.35338 18.7096C4.36089 18.6264 4.39142 18.5469 4.44156 18.48L4.80156 18.0003V10.2C4.80156 8.29044 5.56013 6.45909 6.91039 5.10883C8.26066 3.75857 10.092 3 12.0016 3C13.9111 3 15.7425 3.75857 17.0927 5.10883C18.443 6.45909 19.2016 8.29044 19.2016 10.2V18.0003ZM9.75156 20.1H14.2516C14.2516 20.6967 14.0145 21.269 13.5926 21.691C13.1706 22.1129 12.5983 22.35 12.0016 22.35C11.4048 22.35 10.8325 22.1129 10.4106 21.691C9.98862 21.269 9.75156 20.6967 9.75156 20.1Z" fill="#0A0D14"/>
</g>
</svg>
