<svg width="65" height="64" viewBox="0 0 65 64" fill="none" xmlns="http://www.w3.org/2000/svg">
<g id="Empty States [HR Management] [1.0]">
<rect x="0.5" width="64" height="64" rx="32" fill="#FBEADE"/>
<path id="vector" d="M51.7512 47.6837C51.7512 48.9426 51.2405 50.0819 50.4156 50.9068C49.5906 51.7318 48.4514 52.2424 47.1925 52.2424H25.9492C27.2082 52.2424 28.3474 51.7318 29.1723 50.9068C29.9973 50.0819 30.5079 48.9426 30.5079 47.6837C30.5079 45.1659 28.4671 43.125 25.9492 43.125H47.1925C49.7103 43.125 51.7512 45.1659 51.7512 47.6837Z" fill="#F6CAAD" stroke="#ED955A" stroke-width="0.432432" stroke-linecap="round" stroke-linejoin="round"/>
<path id="vector_2" d="M33.2464 41.7818C34.0714 42.6068 35.2106 43.1174 36.4695 43.1174H15.2267C13.9678 43.1174 12.8285 42.6068 12.0036 41.7818C11.1786 40.9569 10.668 39.8176 10.668 38.5587C10.668 36.0409 12.7088 34 15.2267 34H36.4695C33.9517 34 31.9108 36.0409 31.9108 38.5587C31.9108 39.8177 32.4215 40.9568 33.2464 41.7818Z" fill="#F6CAAD" stroke="#ED955A" stroke-width="0.432432" stroke-linecap="round" stroke-linejoin="round"/>
<path id="vector_3" d="M29.338 47.601V47.7656C29.338 49.754 27.7256 51.3665 25.7371 51.3665H11.4941V44H25.7371C27.7256 44 29.338 45.6125 29.338 47.601Z" fill="white" stroke="#ED955A" stroke-width="0.432432" stroke-linecap="round" stroke-linejoin="round"/>
<path id="vector_4" d="M30.5078 47.6837C30.5078 48.9426 29.9971 50.0819 29.1722 50.9068C28.3473 51.7318 27.208 52.2424 25.9491 52.2424H10.668V51.367H25.7359C27.7243 51.367 29.3368 49.7545 29.3368 47.766V47.6014C29.3368 45.6129 27.7243 44.0005 25.7359 44.0005H10.668V43.125H25.9491C28.467 43.125 30.5078 45.1659 30.5078 47.6837Z" fill="#FBEADE" stroke="#ED955A" stroke-width="0.432432" stroke-linecap="round" stroke-linejoin="round"/>
<path id="vector_5" d="M50.9259 34.877V42.2416H36.683C34.6945 42.2416 33.082 40.631 33.082 38.6425V38.4761C33.082 36.4876 34.6945 34.877 36.683 34.877L50.9259 34.877Z" fill="white" stroke="#ED955A" stroke-width="0.432432" stroke-linecap="round" stroke-linejoin="round"/>
<path id="vector_6" d="M33.0831 38.4764V38.6429C33.0831 40.6314 34.6956 42.242 36.6841 42.242H51.752V43.1174H36.4708C35.2119 43.1174 34.0727 42.6068 33.2477 41.7818C32.4228 40.9569 31.9121 39.8177 31.9121 38.5587C31.9121 36.0409 33.953 34 36.4708 34H51.752V34.8773H36.6841C34.6956 34.8773 33.0831 36.4879 33.0831 38.4764Z" fill="#FBEADE" stroke="#ED955A" stroke-width="0.432432" stroke-linecap="round" stroke-linejoin="round"/>
<path id="vector_7" d="M21.69 54.4144L19.7015 52.5328L17.7129 54.4144V48.3516H21.69V54.4144Z" fill="#FBEADE" stroke="#ED955A" stroke-width="0.432432" stroke-linecap="round" stroke-linejoin="round"/>
<path id="vector_8" d="M9.28489 30.7411C9.28489 30.7411 6.69029 30.7499 6.69029 33.3357C6.69029 30.7499 4.0957 30.7411 4.0957 30.7411C4.0957 30.7411 6.69029 30.7322 6.69029 28.1465C6.69029 30.7322 9.28489 30.7411 9.28489 30.7411Z" stroke="#ED955A" stroke-width="0.432432" stroke-linecap="round" stroke-linejoin="round"/>
<path id="vector_9" d="M38.6892 5.65906C38.6892 5.65906 36.0946 5.66788 36.0946 8.25364C36.0946 5.66788 33.5 5.65906 33.5 5.65906C33.5 5.65906 36.0946 5.65021 36.0946 3.06445C36.0946 5.65021 38.6892 5.65906 38.6892 5.65906Z" stroke="#ED955A" stroke-width="0.432432" stroke-linecap="round" stroke-linejoin="round"/>
<rect id="vector_10" x="14.5957" y="12.6465" width="33.2289" height="21.3529" rx="1.64948" fill="white" stroke="#ED955A" stroke-width="0.432432" stroke-linecap="round" stroke-linejoin="round"/>
<circle id="vector_11" cx="21.7921" cy="20.7902" r="4.43275" fill="white" stroke="#ED955A" stroke-width="0.432432" stroke-miterlimit="10"/>
<g id="vector_12">
<path fill-rule="evenodd" clip-rule="evenodd" d="M18.9453 24.1877C19.0792 22.7331 20.3027 21.594 21.7922 21.594C23.2816 21.594 24.505 22.7328 24.6391 24.1872C23.8689 24.8333 22.8758 25.2224 21.7919 25.2224C20.7082 25.2224 19.7154 24.8335 18.9453 24.1877ZM23.1232 19.9301C23.1232 20.6466 22.5424 21.2274 21.8259 21.2274C21.1094 21.2274 20.5286 20.6466 20.5286 19.9301C20.5286 19.2136 21.1094 18.6328 21.8259 18.6328C22.5424 18.6328 23.1232 19.2136 23.1232 19.9301Z" fill="#ED955A"/>
<path d="M18.9453 24.1877L18.73 24.1679C18.7235 24.2385 18.752 24.3078 18.8064 24.3534L18.9453 24.1877ZM24.6391 24.1872L24.7781 24.3529C24.8324 24.3073 24.8609 24.238 24.8544 24.1674L24.6391 24.1872ZM21.7922 21.3777C20.1899 21.3777 18.874 22.603 18.73 24.1679L19.1606 24.2075C19.2843 22.8631 20.4154 21.8102 21.7922 21.8102V21.3777ZM24.8544 24.1674C24.7102 22.6027 23.3944 21.3777 21.7922 21.3777V21.8102C23.1689 21.8102 24.2999 22.8629 24.4238 24.2071L24.8544 24.1674ZM24.5001 24.0216C23.7674 24.6362 22.8232 25.0061 21.7919 25.0061V25.4386C22.9285 25.4386 23.9704 25.0304 24.7781 24.3529L24.5001 24.0216ZM21.7919 25.0061C20.7609 25.0061 19.8169 24.6364 19.0842 24.022L18.8064 24.3534C19.614 25.0306 20.6556 25.4386 21.7919 25.4386V25.0061ZM21.8259 21.4436C22.6618 21.4436 23.3394 20.766 23.3394 19.9301H22.907C22.907 20.5272 22.423 21.0112 21.8259 21.0112V21.4436ZM20.3124 19.9301C20.3124 20.766 20.99 21.4436 21.8259 21.4436V21.0112C21.2288 21.0112 20.7448 20.5272 20.7448 19.9301H20.3124ZM21.8259 18.4166C20.99 18.4166 20.3124 19.0942 20.3124 19.9301H20.7448C20.7448 19.333 21.2288 18.849 21.8259 18.849V18.4166ZM23.3394 19.9301C23.3394 19.0942 22.6618 18.4166 21.8259 18.4166V18.849C22.423 18.849 22.907 19.333 22.907 19.9301H23.3394Z" fill="#ED955A"/>
</g>
<rect id="vector_13" x="28.4746" y="17.8555" width="14.5046" height="1.73874" rx="0.329897" fill="#F6CAAD"/>
<rect id="vector_14" x="17.4062" y="27.6836" width="14.5046" height="1.73874" rx="0.329897" fill="#F6CAAD"/>
<rect id="vector_15" x="28.4746" y="21.4414" width="14.5046" height="1.73874" rx="0.329897" fill="#F6CAAD"/>
<rect id="vector_16" x="36.4688" y="15.4121" width="18.8413" height="15.2803" rx="1.64948" fill="#F6CAAD" stroke="#ED955A" stroke-width="0.432432" stroke-linecap="round" stroke-linejoin="round"/>
<path id="vector_17" d="M40.6638 20.4712L42.067 21.8651L40.6236 23.3181C40.4764 23.4663 40.4772 23.7057 40.6253 23.8529C40.7735 24.0001 41.0129 23.9993 41.1601 23.8511L42.8701 22.1298C43.0173 21.9816 43.0164 21.7422 42.8683 21.595L41.1968 19.9346C41.0487 19.7874 40.8092 19.7882 40.662 19.9364C40.5148 20.0845 40.5156 20.324 40.6638 20.4712Z" fill="#ED955A"/>
<path id="vector_18" d="M51.0293 19.9029L49.3688 21.5743C49.2987 21.645 49.2586 21.7425 49.259 21.8421C49.2593 21.9417 49.3 22.0389 49.3706 22.1091L51.0919 23.8191C51.2401 23.9663 51.4795 23.9655 51.6267 23.8173C51.7739 23.6691 51.7731 23.4297 51.625 23.2825L50.1719 21.8391L51.5658 20.4359C51.713 20.2878 51.7122 20.0483 51.5641 19.9011C51.4159 19.7539 51.1764 19.7547 51.0293 19.9029Z" fill="#ED955A"/>
<path id="vector_19" d="M43.4414 26.7481L48.8358 26.7302C49.0446 26.7295 49.2133 26.5597 49.2127 26.3508C49.212 26.142 49.0421 25.9732 48.8332 25.9739L43.4389 25.9918C43.23 25.9925 43.0613 26.1623 43.062 26.3712C43.0627 26.58 43.2325 26.7488 43.4414 26.7481Z" fill="#ED955A"/>
</g>
</svg>
