<svg width="24" height="24" viewBox="0 0 24 24" fill="none" xmlns="http://www.w3.org/2000/svg">
<g id="pages-line">
<path id="Vector" d="M5.70039 8.4V19.2H18.3004V8.4H5.70039ZM5.70039 6.6H18.3004V4.8H5.70039V6.6ZM19.2004 21H4.80039C4.5617 21 4.33278 20.9052 4.16399 20.7364C3.99521 20.5676 3.90039 20.3387 3.90039 20.1V3.9C3.90039 3.66131 3.99521 3.43239 4.16399 3.2636C4.33278 3.09482 4.5617 3 4.80039 3H19.2004C19.4391 3 19.668 3.09482 19.8368 3.2636C20.0056 3.43239 20.1004 3.66131 20.1004 3.9V20.1C20.1004 20.3387 20.0056 20.5676 19.8368 20.7364C19.668 20.9052 19.4391 21 19.2004 21ZM7.50039 10.2H11.1004V13.8H7.50039V10.2ZM7.50039 15.6H16.5004V17.4H7.50039V15.6ZM12.9004 11.1H16.5004V12.9H12.9004V11.1Z" fill="#525866"/>
</g>
</svg>
