<svg width="65" height="66" viewBox="0 0 65 66" fill="none" xmlns="http://www.w3.org/2000/svg">
<g id="Empty States [Finance &#38; Banking] [1.0]">
<rect x="0.5" y="1" width="64" height="64" rx="32" fill="#FBEADE"/>
<path id="vector" d="M38.8962 13.7721L14.0467 22.7192C12.8042 23.1666 12.1596 24.5366 12.6069 25.7792L18.0365 40.8591C18.4839 42.1017 19.8539 42.7463 21.0965 42.2989L45.946 33.3518C47.1886 32.9044 47.8332 31.5344 47.3858 30.2918L41.9562 15.2119C41.5088 13.9693 40.1388 13.3247 38.8962 13.7721Z" fill="#F6CAAD" stroke="#ED955A" stroke-width="0.432432" stroke-linecap="round" stroke-linejoin="round"/>
<path id="vector_2" d="M42.4938 16.7042L13.1445 27.2715L14.5953 31.3009L43.9446 20.7336L42.4938 16.7042Z" fill="white" stroke="#ED955A" stroke-width="0.432432" stroke-linecap="round" stroke-linejoin="round"/>
<path id="vector_3" d="M50.0778 24.3594H23.6667C22.346 24.3594 21.2754 25.43 21.2754 26.7506V42.7783C21.2754 44.0989 22.346 45.1696 23.6667 45.1696H50.0778C51.3985 45.1696 52.4691 44.0989 52.4691 42.7783V26.7506C52.4691 25.43 51.3985 24.3594 50.0778 24.3594Z" fill="white" stroke="#ED955A" stroke-width="0.432432" stroke-linecap="round" stroke-linejoin="round"/>
<path id="vector_4" d="M48.2268 32.1895H43.3254C42.7768 32.1895 42.332 32.6342 42.332 33.1828V36.1827C42.332 36.7313 42.7768 37.176 43.3254 37.176H48.2268C48.7754 37.176 49.2201 36.7313 49.2201 36.1827V33.1828C49.2201 32.6342 48.7754 32.1895 48.2268 32.1895Z" fill="#F6CAAD" stroke="#ED955A" stroke-width="0.432432" stroke-linecap="round" stroke-linejoin="round"/>
<path id="vector_5" d="M42.332 33.8288H44.2555V33.2559" stroke="#ED955A" stroke-width="0.432432" stroke-linecap="round" stroke-linejoin="round"/>
<path id="vector_6" d="M42.332 35.5371H44.2555V36.11" stroke="#ED955A" stroke-width="0.432432" stroke-linecap="round" stroke-linejoin="round"/>
<path id="vector_7" d="M49.2183 33.7441H47.3262" stroke="#ED955A" stroke-width="0.432432" stroke-linecap="round" stroke-linejoin="round"/>
<path id="vector_8" d="M49.2202 34.9277H45.9043" stroke="#ED955A" stroke-width="0.432432" stroke-linecap="round" stroke-linejoin="round"/>
<path id="vector_9" d="M49.2183 36.1094H47.3262" stroke="#ED955A" stroke-width="0.432432" stroke-linecap="round" stroke-linejoin="round"/>
<path id="vector_10" d="M31.0157 39.877H23.4258V41.4506H31.0157V39.877Z" fill="#F6CAAD"/>
<path id="vector_11" d="M29.3708 36.1094H23.4258V37.6831H29.3708V36.1094Z" fill="#F6CAAD"/>
<path id="vector_12" d="M39.1758 39.877H32.6621V41.4506H39.1758V39.877Z" fill="#F6CAAD"/>
<path id="vector_13" d="M41.2655 38.043H28.2848C27.5008 38.043 26.8652 38.6785 26.8652 39.4625V50.8859C26.8652 51.6699 27.5008 52.3054 28.2848 52.3054H41.2655C42.0495 52.3054 42.685 51.6699 42.685 50.8859V39.4625C42.685 38.6785 42.0495 38.043 41.2655 38.043Z" fill="#F6CAAD" stroke="#ED955A" stroke-width="0.432432" stroke-linecap="round" stroke-linejoin="round"/>
<g id="vector_14">
<path d="M29.3809 41.7012L32.0433 44.3605L29.3809 41.7012Z" fill="#F6CAAD"/>
<path d="M29.3809 41.7012L32.0433 44.3605" stroke="#ED955A" stroke-width="0.432432" stroke-linecap="round" stroke-linejoin="round"/>
</g>
<g id="vector_15">
<path d="M32.0402 41.6992L29.3809 44.3616L32.0402 41.6992Z" fill="#F6CAAD"/>
<path d="M32.0402 41.6992L29.3809 44.3616" stroke="#ED955A" stroke-width="0.432432" stroke-linecap="round" stroke-linejoin="round"/>
</g>
<g id="vector_16">
<path d="M37.5078 41.6953L40.1702 44.3546L37.5078 41.6953Z" fill="#F6CAAD"/>
<path d="M37.5078 41.6953L40.1702 44.3546" stroke="#ED955A" stroke-width="0.432432" stroke-linecap="round" stroke-linejoin="round"/>
</g>
<g id="vector_17">
<path d="M40.1691 41.6934L37.5098 44.3558L40.1691 41.6934Z" fill="#F6CAAD"/>
<path d="M40.1691 41.6934L37.5098 44.3558" stroke="#ED955A" stroke-width="0.432432" stroke-linecap="round" stroke-linejoin="round"/>
</g>
<g id="vector_18">
<path d="M31.043 47.0978L37.9421 47.0938L31.043 47.0978Z" fill="#F6CAAD"/>
<path d="M31.043 47.0978L37.9421 47.0938" stroke="#ED955A" stroke-width="0.432432" stroke-linecap="round" stroke-linejoin="round"/>
</g>
<path id="vector_19" d="M35.711 47.0957H37.7307V48.2227C37.7307 48.7801 37.2782 49.2326 36.7208 49.2326C36.1634 49.2326 35.7109 48.7801 35.7109 48.2227L35.711 47.0957Z" fill="#F6CAAD" stroke="#ED955A" stroke-width="0.432432" stroke-linecap="round" stroke-linejoin="round"/>
<path id="vector_20" d="M16.1534 0.468794C16.1534 0.468794 18.4765 3.19413 15.7684 5.5185C18.4765 3.19409 20.8181 5.90352 20.8181 5.90352C20.8181 5.90352 18.495 3.17819 21.2031 0.853771C18.495 3.17819 16.1534 0.468794 16.1534 0.468794Z" fill="white" stroke="#ED955A" stroke-width="0.432432" stroke-linecap="round" stroke-linejoin="round"/>
<path id="vector_21" d="M41.7278 61.2926C41.7278 61.2926 45.2976 61.5771 45.0262 65.1356C45.2976 61.577 48.8691 61.8371 48.8691 61.8371C48.8691 61.8371 45.2994 61.5527 45.5707 57.9941C45.2994 61.5527 41.7278 61.2926 41.7278 61.2926Z" fill="white" stroke="#ED955A" stroke-width="0.432432" stroke-linecap="round" stroke-linejoin="round"/>
</g>
</svg>
