<svg width="32" height="32" viewBox="0 0 32 32" fill="none" xmlns="http://www.w3.org/2000/svg">
<g id="qr-code-line">
<path id="Vector" d="M20.7992 21.9992V20.7992H17.1992V17.1992H20.7992V19.5992H23.1992V21.9992H21.9992V24.3992H19.5992V26.7992H17.1992V23.1992H19.5992V21.9992H20.7992ZM26.7992 26.7992H21.9992V24.3992H24.3992V21.9992H26.7992V26.7992ZM5.19922 5.19922H14.7992V14.7992H5.19922V5.19922ZM7.59922 7.59922V12.3992H12.3992V7.59922H7.59922ZM17.1992 5.19922H26.7992V14.7992H17.1992V5.19922ZM19.5992 7.59922V12.3992H24.3992V7.59922H19.5992ZM5.19922 17.1992H14.7992V26.7992H5.19922V17.1992ZM7.59922 19.5992V24.3992H12.3992V19.5992H7.59922ZM23.1992 17.1992H26.7992V19.5992H23.1992V17.1992ZM8.79922 8.79922H11.1992V11.1992H8.79922V8.79922ZM8.79922 20.7992H11.1992V23.1992H8.79922V20.7992ZM20.7992 8.79922H23.1992V11.1992H20.7992V8.79922Z" fill="white"/>
</g>
</svg>
