<svg width="66" height="64" viewBox="0 0 66 64" fill="none" xmlns="http://www.w3.org/2000/svg">
<g id="Empty States [HR Management] [1.0]">
<rect x="1.5" width="64" height="64" rx="32" fill="#FBEADE"/>
<path id="vector" d="M14.4954 22.0216C14.9072 23.5583 13.6531 25.2294 11.6944 25.7543C11.2047 25.8855 10.7173 25.9327 10.2553 25.9055" stroke="#ED955A" stroke-width="1.2973" stroke-linecap="round" stroke-linejoin="round"/>
<path id="vector_2" d="M17.9153 34.7872C18.3271 36.3239 17.073 37.9951 15.1143 38.5199C14.6246 38.6511 14.1372 38.6983 13.6752 38.6711" stroke="#ED955A" stroke-width="1.2973" stroke-linecap="round" stroke-linejoin="round"/>
<path id="vector_3" d="M21.3372 47.5548C21.749 49.0915 20.4949 50.7626 18.5362 51.2875C18.0465 51.4187 17.5591 51.4659 17.0971 51.4387" stroke="#ED955A" stroke-width="1.2973" stroke-linecap="round" stroke-linejoin="round"/>
<path id="vector_4" d="M43.4154 9.53388L16.5654 16.7283C15.1842 17.0984 14.3645 18.5181 14.7346 19.8994L24.0861 54.7998C24.4562 56.1811 25.876 57.0007 27.2572 56.6306L54.1072 49.4362C55.4884 49.0661 56.3081 47.6464 55.938 46.2652L46.5864 11.3647C46.2163 9.98347 44.7966 9.16378 43.4154 9.53388Z" fill="white" stroke="#ED955A" stroke-width="0.432432" stroke-linecap="round" stroke-linejoin="round"/>
<path id="vector_5" d="M38.1771 7.18818L11.3271 14.3826C9.94588 14.7527 9.1262 16.1724 9.49629 17.5537L18.8478 52.4541C19.2179 53.8354 20.6377 54.655 22.0189 54.2849L48.8689 47.0905C50.2501 46.7204 51.0698 45.3007 50.6997 43.9194L41.3481 9.01899C40.978 7.63776 39.5583 6.81808 38.1771 7.18818Z" fill="#F6CAAD" stroke="#ED955A" stroke-width="0.432432" stroke-linecap="round" stroke-linejoin="round"/>
<path id="vector_6" d="M10.2548 25.9044C8.86873 25.8231 7.71059 25.0735 7.40179 23.9211C6.99004 22.3844 8.24409 20.7132 10.2028 20.1884C12.1616 19.6635 14.0832 20.4838 14.495 22.0204" stroke="#ED955A" stroke-width="1.2973" stroke-linecap="round" stroke-linejoin="round"/>
<path id="vector_7" d="M13.6747 38.672C12.2887 38.5907 11.1305 37.8411 10.8217 36.6886C10.41 35.152 11.664 33.4808 13.6228 32.9559C15.5815 32.4311 17.5031 33.2514 17.9149 34.788" stroke="#ED955A" stroke-width="1.2973" stroke-linecap="round" stroke-linejoin="round"/>
<path id="vector_8" d="M17.0966 51.4376C15.7105 51.3563 14.5524 50.6067 14.2436 49.4543C13.8318 47.9176 15.0859 46.2464 17.0446 45.7216C19.0034 45.1967 20.925 46.017 21.3368 47.5536" stroke="#ED955A" stroke-width="1.2973" stroke-linecap="round" stroke-linejoin="round"/>
<path id="vector_9" d="M22.9053 24.9402C25.2142 24.3215 26.5844 21.9483 25.9657 19.6394C25.3471 17.3306 22.9738 15.9604 20.665 16.579C18.3561 17.1977 16.9859 19.5709 17.6046 21.8798C18.2232 24.1887 20.5965 25.5589 22.9053 24.9402Z" fill="#F6CAAD" stroke="#ED955A" stroke-width="0.432432" stroke-linecap="round" stroke-linejoin="round"/>
<g id="vector_10">
<path d="M20.8833 23.2009C20.8833 23.2009 21.0977 22.4383 22.1586 22.154C23.2196 21.8697 23.7865 22.423 23.7865 22.423" fill="#F6CAAD"/>
<path d="M20.8833 23.2009C20.8833 23.2009 21.0977 22.4383 22.1586 22.154C23.2196 21.8697 23.7865 22.423 23.7865 22.423" stroke="#ED955A" stroke-width="0.432432" stroke-linecap="round" stroke-linejoin="round"/>
</g>
<path id="vector_11" d="M20.0828 20.9126C20.4174 20.823 20.616 20.479 20.5263 20.1444C20.4367 19.8099 20.0928 19.6113 19.7582 19.701C19.4236 19.7906 19.225 20.1345 19.3147 20.4691C19.4043 20.8037 19.7482 21.0023 20.0828 20.9126Z" fill="#ED955A" stroke="#ED955A" stroke-width="0.432432" stroke-linecap="round" stroke-linejoin="round"/>
<path id="vector_12" d="M23.3328 20.0415C23.6674 19.9519 23.866 19.6079 23.7763 19.2734C23.6867 18.9388 23.3428 18.7402 23.0082 18.8299C22.6736 18.9195 22.475 19.2634 22.5647 19.598C22.6543 19.9326 22.9982 20.1312 23.3328 20.0415Z" fill="#ED955A" stroke="#ED955A" stroke-width="0.432432" stroke-linecap="round" stroke-linejoin="round"/>
<path id="vector_13" d="M29.0069 47.7136C31.3158 47.095 32.686 44.7217 32.0673 42.4129C31.4486 40.104 29.0754 38.7338 26.7665 39.3525C24.4576 39.9711 23.0875 42.3444 23.7061 44.6532C24.3248 46.9621 26.698 48.3323 29.0069 47.7136Z" fill="#F6CAAD" stroke="#ED955A" stroke-width="0.432432" stroke-linecap="round" stroke-linejoin="round"/>
<g id="vector_14">
<path d="M26.8066 45.3125C26.8066 45.3125 27.3736 45.8658 28.4346 45.5815C29.4955 45.2972 29.7099 44.5346 29.7099 44.5346" fill="#F6CAAD"/>
<path d="M26.8066 45.3125C26.8066 45.3125 27.3736 45.8658 28.4346 45.5815C29.4955 45.2972 29.7099 44.5346 29.7099 44.5346" stroke="#ED955A" stroke-width="0.432432" stroke-linecap="round" stroke-linejoin="round"/>
</g>
<path id="vector_15" d="M26.1844 43.6841C26.519 43.5944 26.7175 43.2505 26.6279 42.9159C26.5382 42.5813 26.1943 42.3828 25.8597 42.4724C25.5251 42.5621 25.3266 42.906 25.4162 43.2406C25.5059 43.5752 25.8498 43.7737 26.1844 43.6841Z" fill="#ED955A" stroke="#ED955A" stroke-width="0.432432" stroke-linecap="round" stroke-linejoin="round"/>
<path id="vector_16" d="M29.4344 42.811C29.769 42.7214 29.9675 42.3775 29.8779 42.0429C29.7882 41.7083 29.4443 41.5097 29.1097 41.5994C28.7751 41.689 28.5766 42.033 28.6662 42.3675C28.7559 42.7021 29.0998 42.9007 29.4344 42.811Z" fill="#ED955A" stroke="#ED955A" stroke-width="0.432432" stroke-linecap="round" stroke-linejoin="round"/>
<path id="vector_17" d="M25.8663 35.9968C28.1751 35.3782 29.5453 33.0049 28.9267 30.6961C28.308 28.3872 25.9348 27.017 23.6259 27.6357C21.317 28.2543 19.9468 30.6276 20.5655 32.9364C21.1842 35.2453 23.5574 36.6155 25.8663 35.9968Z" fill="#F6CAAD" stroke="#ED955A" stroke-width="0.432432" stroke-linecap="round" stroke-linejoin="round"/>
<path id="vector_18" d="M23.0457 31.9673C23.3803 31.8776 23.5789 31.5337 23.4892 31.1991C23.3996 30.8645 23.0557 30.666 22.7211 30.7556C22.3865 30.8453 22.1879 31.1892 22.2776 31.5238C22.3672 31.8584 22.7111 32.0569 23.0457 31.9673Z" fill="#ED955A" stroke="#ED955A" stroke-width="0.432432" stroke-linecap="round" stroke-linejoin="round"/>
<path id="vector_19" d="M26.2957 31.0982C26.6303 31.0085 26.8289 30.6646 26.7392 30.33C26.6496 29.9954 26.3057 29.7968 25.9711 29.8865C25.6365 29.9761 25.4379 30.3201 25.5276 30.6547C25.6172 30.9892 25.9611 31.1878 26.2957 31.0982Z" fill="#ED955A" stroke="#ED955A" stroke-width="0.432432" stroke-linecap="round" stroke-linejoin="round"/>
<path id="vector_20" d="M23.7891 33.8438L26.5886 33.0936" stroke="#ED955A" stroke-width="0.432432" stroke-linecap="round" stroke-linejoin="round"/>
<path id="vector_21" d="M37.6781 14.898L28.2694 17.419C28.03 17.4832 27.8879 17.7292 27.9521 17.9686L28.3202 19.3424C28.3843 19.5818 28.6304 19.7239 28.8698 19.6597L38.2785 17.1387C38.5179 17.0745 38.66 16.8285 38.5958 16.5891L38.2277 15.2153C38.1636 14.9759 37.9175 14.8338 37.6781 14.898Z" fill="white"/>
<path id="vector_22" d="M40.7406 26.3316L31.3319 28.8526C31.0925 28.9167 30.9504 29.1628 31.0146 29.4022L31.3827 30.776C31.4468 31.0154 31.6929 31.1575 31.9323 31.0933L41.341 28.5723C41.5804 28.5081 41.7225 28.2621 41.6583 28.0226L41.2902 26.6489C41.2261 26.4095 40.98 26.2674 40.7406 26.3316Z" fill="white"/>
<path id="vector_23" d="M43.805 37.7632L34.3964 40.2842C34.157 40.3484 34.0149 40.5945 34.079 40.8339L34.4471 42.2076C34.5113 42.447 34.7574 42.5891 34.9968 42.525L44.4054 40.0039C44.6448 39.9398 44.7869 39.6937 44.7228 39.4543L44.3547 38.0805C44.2905 37.8411 44.0444 37.699 43.805 37.7632Z" fill="white"/>
<path id="vector_24" d="M43.2622 57.1233L61.3532 52.3708C61.4035 52.3576 61.4501 52.3422 61.4967 52.3268C61.5005 52.329 61.5034 52.3282 61.5056 52.3244C61.5635 52.3156 61.6197 52.3008 61.676 52.286C63.5716 51.788 64.7028 49.8508 64.2048 47.9552C63.9029 46.806 63.0703 45.9387 62.0383 45.5417C61.3727 45.286 60.6204 45.2303 59.874 45.4264L41.5894 47.6461C43.9043 47.4305 46.0976 48.9093 46.7068 51.2284C47.3837 53.8052 45.842 56.4456 43.2622 57.1233Z" fill="#FBEADE" stroke="#ED955A" stroke-width="0.432432" stroke-linecap="round" stroke-linejoin="round"/>
<path id="vector_25" d="M32.7529 36.0791L37.3668 53.6815C38.0437 56.2583 40.6841 57.8 43.2609 57.1231C45.8407 56.4454 47.3825 53.805 46.7055 51.2282C46.0963 48.9091 43.9031 47.4303 41.5882 47.6459L59.8727 45.4262C60.6191 45.2301 61.3715 45.2858 62.0371 45.5415L57.8309 29.4911C57.494 28.2086 56.1813 27.4422 54.9017 27.7783L34.462 33.1478C33.1795 33.4847 32.416 34.7966 32.7529 36.0791Z" fill="#FBEADE" stroke="#ED955A" stroke-width="0.432432" stroke-linecap="round" stroke-linejoin="round"/>
<path id="vector_26" d="M53.3848 33.1484L50.5888 37.9103" stroke="#ED955A" stroke-width="0.432432" stroke-linecap="round" stroke-linejoin="round"/>
<path id="vector_27" d="M49.6073 34.1309L54.3691 36.9269" stroke="#ED955A" stroke-width="0.432432" stroke-linecap="round" stroke-linejoin="round"/>
<path id="vector_28" d="M41.8398 36.1504L39.0439 40.9122" stroke="#ED955A" stroke-width="0.432432" stroke-linecap="round" stroke-linejoin="round"/>
<path id="vector_29" d="M38.0624 37.1328L42.8242 39.9288" stroke="#ED955A" stroke-width="0.432432" stroke-linecap="round" stroke-linejoin="round"/>
<path id="vector_30" d="M53.0195 41.4258L43.2215 43.9743" stroke="#ED955A" stroke-width="0.432432" stroke-linecap="round" stroke-linejoin="round"/>
<path id="vector_31" d="M6.11811 38.4864C6.11811 38.4864 3.79503 41.2117 6.50313 43.5361C3.79498 41.2117 1.45343 43.9211 1.45343 43.9211C1.45343 43.9211 3.77651 41.1958 1.06836 38.8713C3.77651 41.1958 6.11811 38.4864 6.11811 38.4864Z" fill="#F6CAAD" stroke="#ED955A" stroke-width="0.432432" stroke-linecap="round" stroke-linejoin="round"/>
<path id="vector_32" d="M63.6318 14.2696C63.6318 14.2696 61.3087 16.9949 64.0168 19.3193C61.3087 16.9949 58.9671 19.7043 58.9671 19.7043C58.9671 19.7043 61.2902 16.979 58.582 14.6546C61.2902 16.979 63.6318 14.2696 63.6318 14.2696Z" fill="#F6CAAD" stroke="#ED955A" stroke-width="0.432432" stroke-linecap="round" stroke-linejoin="round"/>
</g>
</svg>
