<svg width="20" height="20" viewBox="0 0 20 20" fill="none" xmlns="http://www.w3.org/2000/svg">
<g id="sticky-note-line">
<path id="Vector" d="M16.75 12.25L12.25 16.747L4.0015 16.75C3.80311 16.7508 3.61253 16.6728 3.47161 16.5332C3.3307 16.3935 3.25099 16.2036 3.25 16.0052V3.99475C3.25 3.58375 3.58375 3.25 3.99475 3.25H16.0052C16.4163 3.25 16.75 3.592 16.75 4.0015V12.25ZM15.25 4.75H4.75V15.25H10.75V11.5C10.75 11.3163 10.8175 11.139 10.9395 11.0017C11.0616 10.8644 11.2298 10.7767 11.4123 10.7552L11.5 10.75L15.25 10.7492V4.75ZM14.6283 12.2492L12.25 12.25V14.6268L14.6283 12.2492Z" fill="#868C98"/>
</g>
</svg>
