<svg width="20" height="20" viewBox="0 0 20 20" fill="none" xmlns="http://www.w3.org/2000/svg">
<g id="settings-4-line">
<path id="Vector" d="M2.5 10.0019C2.5 9.35319 2.5825 8.72469 2.737 8.12394C3.15135 8.14572 3.56365 8.0525 3.92833 7.85459C4.29301 7.65668 4.59586 7.36178 4.8034 7.0025C5.01095 6.64321 5.1151 6.23354 5.10436 5.81875C5.09361 5.40397 4.96837 5.00024 4.7425 4.65219C5.64921 3.76011 6.7681 3.11356 7.99375 2.77344C8.18199 3.14354 8.46898 3.45434 8.82294 3.67142C9.1769 3.8885 9.58402 4.0034 9.99925 4.0034C10.4145 4.0034 10.8216 3.8885 11.1756 3.67142C11.5295 3.45434 11.8165 3.14354 12.0048 2.77344C13.2304 3.11356 14.3493 3.76011 15.256 4.65219C15.0299 5.0003 14.9045 5.40419 14.8936 5.81916C14.8828 6.23413 14.987 6.64401 15.1946 7.00345C15.4023 7.36288 15.7054 7.65786 16.0703 7.85575C16.4352 8.05364 16.8477 8.14671 17.2623 8.12469C17.4167 8.72469 17.4993 9.35319 17.4993 10.0019C17.4993 10.6507 17.4167 11.2792 17.2623 11.8799C16.8478 11.858 16.4354 11.9511 16.0706 12.149C15.7059 12.3468 15.4029 12.6417 15.1953 13.001C14.9876 13.3603 14.8834 13.7701 14.8941 14.1849C14.9048 14.5998 15.0301 15.0036 15.256 15.3517C14.3493 16.2438 13.2304 16.8903 12.0048 17.2304C11.8165 16.8603 11.5295 16.5495 11.1756 16.3325C10.8216 16.1154 10.4145 16.0005 9.99925 16.0005C9.58402 16.0005 9.1769 16.1154 8.82294 16.3325C8.46898 16.5495 8.18199 16.8603 7.99375 17.2304C6.7681 16.8903 5.64921 16.2438 4.7425 15.3517C4.96863 15.0036 5.09405 14.5997 5.10488 14.1847C5.11571 13.7697 5.01152 13.3599 4.80386 13.0004C4.59619 12.641 4.29314 12.346 3.92823 12.1481C3.56332 11.9502 3.15078 11.8572 2.73625 11.8792C2.5825 11.2799 2.5 10.6514 2.5 10.0019ZM6.103 12.2519C6.5755 13.0702 6.7105 14.0114 6.526 14.8949C6.832 15.1124 7.1575 15.3007 7.49875 15.4574C8.18625 14.8416 9.07699 14.5013 10 14.5019C10.945 14.5019 11.8285 14.8552 12.5013 15.4574C12.8425 15.3007 13.168 15.1124 13.474 14.8949C13.2846 13.9919 13.4352 13.0507 13.897 12.2519C14.358 11.4527 15.0978 10.8518 15.9745 10.5644C16.0092 10.1902 16.0092 9.81364 15.9745 9.43944C15.0975 9.15223 14.3574 8.5513 13.8962 7.75194C13.4345 6.95314 13.2838 6.01196 13.4733 5.10894C13.1673 4.89138 12.8417 4.70305 12.5005 4.54644C11.8132 5.16214 10.9228 5.50239 10 5.50194C9.07699 5.50258 8.18625 5.16231 7.49875 4.54644C7.1576 4.70306 6.83192 4.89138 6.526 5.10894C6.71542 6.01196 6.56479 6.95314 6.103 7.75194C5.64203 8.55116 4.90224 9.15207 4.0255 9.43944C3.99081 9.81364 3.99081 10.1902 4.0255 10.5644C4.90252 10.8516 5.6426 11.4526 6.10375 12.2519H6.103ZM10 12.2519C9.40326 12.2519 8.83097 12.0149 8.40901 11.5929C7.98705 11.171 7.75 10.5987 7.75 10.0019C7.75 9.4052 7.98705 8.8329 8.40901 8.41095C8.83097 7.98899 9.40326 7.75194 10 7.75194C10.5967 7.75194 11.169 7.98899 11.591 8.41095C12.0129 8.8329 12.25 9.4052 12.25 10.0019C12.25 10.5987 12.0129 11.171 11.591 11.5929C11.169 12.0149 10.5967 12.2519 10 12.2519ZM10 10.7519C10.1989 10.7519 10.3897 10.6729 10.5303 10.5323C10.671 10.3916 10.75 10.2009 10.75 10.0019C10.75 9.80303 10.671 9.61226 10.5303 9.47161C10.3897 9.33096 10.1989 9.25194 10 9.25194C9.80109 9.25194 9.61032 9.33096 9.46967 9.47161C9.32902 9.61226 9.25 9.80303 9.25 10.0019C9.25 10.2009 9.32902 10.3916 9.46967 10.5323C9.61032 10.6729 9.80109 10.7519 10 10.7519Z" fill="#525866"/>
</g>
</svg>
