<svg width="41" height="40" viewBox="0 0 41 40" fill="none" xmlns="http://www.w3.org/2000/svg">
<g id="Shiftbox Logo">
<rect x="0.5" width="40" height="40" rx="8" fill="#6DAED6"/>
<g id="Rectangle 272" filter="url(#filter0_d_4279_170438)">
<path d="M25.2003 17.7695C25.516 17.5522 25.9345 17.5575 26.2446 17.7828L31.7256 21.765C32.7355 22.4988 32.7162 24.0109 31.6877 24.7185L17.3314 34.5975C17.0156 34.8147 16.5972 34.8094 16.2871 34.5841L9.77196 29.8506C9.26698 29.4837 9.27665 28.7277 9.79084 28.3738L25.2003 17.7695Z" fill="white"/>
</g>
<g id="Rectangle 271" filter="url(#filter1_d_4279_170438)">
<path d="M22.8379 5.27728C23.1537 5.05998 23.5722 5.06533 23.8823 5.29064L29.3633 9.27279C30.3732 10.0066 30.3539 11.5187 29.3254 12.2264L14.9691 22.1053C14.6533 22.3226 14.2349 22.3172 13.9248 22.0919L7.40966 17.3584C6.90468 16.9915 6.91434 16.2355 7.42854 15.8816L22.8379 5.27728Z" fill="white"/>
</g>
</g>
<defs>
<filter id="filter0_d_4279_170438" x="8.65301" y="17.2024" width="24.5643" height="18.6388" filterUnits="userSpaceOnUse" color-interpolation-filters="sRGB">
<feFlood flood-opacity="0" result="BackgroundImageFix"/>
<feColorMatrix in="SourceAlpha" type="matrix" values="0 0 0 0 0 0 0 0 0 0 0 0 0 0 0 0 0 0 127 0" result="hardAlpha"/>
<feMorphology radius="0.0678327" operator="erode" in="SourceAlpha" result="effect1_dropShadow_4279_170438"/>
<feOffset dy="0.339163"/>
<feGaussianBlur stdDeviation="0.406996"/>
<feComposite in2="hardAlpha" operator="out"/>
<feColorMatrix type="matrix" values="0 0 0 0 0.345098 0 0 0 0 0.360784 0 0 0 0 0.372549 0 0 0 0.2 0"/>
<feBlend mode="normal" in2="BackgroundImageFix" result="effect1_dropShadow_4279_170438"/>
<feBlend mode="normal" in="SourceGraphic" in2="effect1_dropShadow_4279_170438" result="shape"/>
</filter>
<filter id="filter1_d_4279_170438" x="6.29071" y="4.71019" width="24.5643" height="18.6388" filterUnits="userSpaceOnUse" color-interpolation-filters="sRGB">
<feFlood flood-opacity="0" result="BackgroundImageFix"/>
<feColorMatrix in="SourceAlpha" type="matrix" values="0 0 0 0 0 0 0 0 0 0 0 0 0 0 0 0 0 0 127 0" result="hardAlpha"/>
<feMorphology radius="0.0678327" operator="erode" in="SourceAlpha" result="effect1_dropShadow_4279_170438"/>
<feOffset dy="0.339163"/>
<feGaussianBlur stdDeviation="0.406996"/>
<feComposite in2="hardAlpha" operator="out"/>
<feColorMatrix type="matrix" values="0 0 0 0 0.345098 0 0 0 0 0.360784 0 0 0 0 0.372549 0 0 0 0.2 0"/>
<feBlend mode="normal" in2="BackgroundImageFix" result="effect1_dropShadow_4279_170438"/>
<feBlend mode="normal" in="SourceGraphic" in2="effect1_dropShadow_4279_170438" result="shape"/>
</filter>
</defs>
</svg>
