<svg width="24" height="24" viewBox="0 0 24 24" fill="none" xmlns="http://www.w3.org/2000/svg">
<g id="share-box-fill">
<path id="Vector" d="M18.7984 18.3004V14.3004H19.5984V19.2004C19.5984 19.3065 19.5563 19.4082 19.4813 19.4832C19.4063 19.5582 19.3045 19.6004 19.1984 19.6004H4.79844C4.69235 19.6004 4.59061 19.5582 4.5156 19.4832C4.44058 19.4082 4.39844 19.3065 4.39844 19.2004V4.80039C4.39844 4.6943 4.44058 4.59256 4.51559 4.51755C4.59061 4.44253 4.69235 4.40039 4.79844 4.40039H9.69844V5.20039H5.69844H5.19844V5.70039V18.3004V18.8004H5.69844H18.2984H18.7984V18.3004ZM17.4883 7.78314L17.1347 7.42958L16.7812 7.78314L11.9984 12.5659L11.4329 12.0004L16.2157 7.21764L16.5692 6.86409L16.2157 6.51054L14.1055 4.40039H19.5984V9.89328L17.4883 7.78314Z" fill="#525866" stroke="#525866"/>
</g>
</svg>
