<svg width="24" height="24" viewBox="0 0 24 24" fill="none" xmlns="http://www.w3.org/2000/svg">
<g id="shield-star-line">
<path id="Vector" d="M17.4182 17.6865L17.4183 17.6865C18.0894 17.2391 18.6398 16.6328 19.0205 15.9217C19.4011 15.2105 19.6003 14.4163 19.6004 13.6097L17.4182 17.6865ZM17.4182 17.6865L12.0004 21.2987L6.58256 17.6865L6.58252 17.6865M17.4182 17.6865L6.58252 17.6865M6.58252 17.6865C5.91145 17.2391 5.36117 16.6331 4.98051 15.922C4.59987 15.211 4.4006 14.4171 4.40039 13.6106C4.40039 13.6106 4.40039 13.6105 4.40039 13.6105V4.6215L6.58252 17.6865ZM5.59203 4.85509L5.20039 4.94204V5.34321V13.6097C5.2004 14.2846 5.36703 14.9491 5.68548 15.5442C6.00394 16.1393 6.46437 16.6465 7.02592 17.0209L11.723 20.1529L12.0004 20.3379L12.2778 20.1529L16.9749 17.0209C16.9749 17.0209 16.9749 17.0209 16.9749 17.0209C17.5363 16.6466 17.9966 16.1395 18.3151 15.5446C18.6335 14.9498 18.8002 14.2855 18.8004 13.6107V13.6106V5.34321V4.94204L18.4088 4.85509L12.1088 3.45649L12.0004 3.43244L11.892 3.45649L5.59203 4.85509ZM4.40039 4.62141C4.40043 4.53045 4.43146 4.44221 4.48839 4.37126L4.09838 4.05837L4.48839 4.37126C4.54532 4.30029 4.62474 4.25085 4.71356 4.2311C4.71357 4.2311 4.71358 4.2311 4.71359 4.2311L12.0004 2.61181L19.2872 4.2311C19.2872 4.2311 19.2872 4.2311 19.2872 4.2311C19.376 4.25085 19.4555 4.30029 19.5124 4.37126C19.5693 4.44221 19.6004 4.53045 19.6004 4.62141C19.6004 4.62144 19.6004 4.62147 19.6004 4.62149V13.6097L4.40039 4.62141ZM12.2331 12.9071L12.0004 12.7847L11.7677 12.907L10.0193 13.8262L10.353 11.8798L10.3974 11.6208L10.2093 11.4373L8.79496 10.0581L10.7503 9.7737L11.0104 9.73587L11.1267 9.50016L12.0005 7.72922L12.8751 9.50028L12.9914 9.73587L13.2514 9.7737L15.2059 10.0581L13.7915 11.4373L13.6034 11.6207L13.6478 11.8797L13.9809 13.8262L12.2331 12.9071Z" fill="#0A0D14" stroke="#0A0D14"/>
</g>
</svg>
