<svg width="24" height="24" viewBox="0 0 24 24" fill="none" xmlns="http://www.w3.org/2000/svg">
<g clip-path="url(#clip0_1691_40921)">
<path d="M12 24C18.6274 24 24 18.6274 24 12C24 5.37258 18.6274 0 12 0C5.37258 0 0 5.37258 0 12C0 18.6274 5.37258 24 12 24Z" fill="#D80027"/>
<path d="M14.5097 9.80566L15.4943 11.1625L17.0888 10.6454L16.1027 12.0011L17.0872 13.3578L15.4932 12.8388L14.5071 14.1944L14.5081 12.5181L12.9141 11.9991L14.5087 11.4821L14.5097 9.80566Z" fill="#F0F0F0"/>
<path d="M11.822 15.3914C9.94905 15.3914 8.43067 13.873 8.43067 12.0001C8.43067 10.1272 9.94905 8.6088 11.822 8.6088C12.406 8.6088 12.9554 8.7565 13.4351 9.01642C12.6826 8.28039 11.6533 7.82617 10.5176 7.82617C8.21242 7.82617 6.34375 9.69489 6.34375 12.0001C6.34375 14.3052 8.21247 16.174 10.5176 16.174C11.6534 16.174 12.6826 15.7197 13.4351 14.9837C12.9554 15.2437 12.406 15.3914 11.822 15.3914Z" fill="#F0F0F0"/>
</g>
<defs>
<clipPath id="clip0_1691_40921">
<rect width="24" height="24" fill="white"/>
</clipPath>
</defs>
</svg>
