<svg width="24" height="24" viewBox="0 0 24 24" fill="none" xmlns="http://www.w3.org/2000/svg">
<g id="todo-line">
<path id="Vector" d="M16.5004 2.99922H19.2004C19.4391 2.99922 19.668 3.09404 19.8368 3.26282C20.0056 3.43161 20.1004 3.66052 20.1004 3.89922V20.0992C20.1004 20.3379 20.0056 20.5668 19.8368 20.7356C19.668 20.9044 19.4391 20.9992 19.2004 20.9992H4.80039C4.5617 20.9992 4.33278 20.9044 4.16399 20.7356C3.99521 20.5668 3.90039 20.3379 3.90039 20.0992V3.89922C3.90039 3.66052 3.99521 3.43161 4.16399 3.26282C4.33278 3.09404 4.5617 2.99922 4.80039 2.99922H7.50039V1.19922H9.30039V2.99922H14.7004V1.19922H16.5004V2.99922ZM16.5004 4.79922V6.59922H14.7004V4.79922H9.30039V6.59922H7.50039V4.79922H5.70039V19.1992H18.3004V4.79922H16.5004ZM7.50039 8.39922H16.5004V10.1992H7.50039V8.39922ZM7.50039 11.9992H16.5004V13.7992H7.50039V11.9992Z" fill="#525866"/>
</g>
</svg>
