<svg width="32" height="32" viewBox="0 0 32 32" fill="none" xmlns="http://www.w3.org/2000/svg">
<g id="user-3-fill">
<path id="Vector" d="M25.6004 28.0008H6.40039V25.6008C6.40039 24.0095 7.03253 22.4834 8.15775 21.3581C9.28297 20.2329 10.8091 19.6008 12.4004 19.6008H19.6004C21.1917 19.6008 22.7178 20.2329 23.843 21.3581C24.9683 22.4834 25.6004 24.0095 25.6004 25.6008V28.0008ZM16.0004 17.2008C15.0549 17.2008 14.1186 17.0145 13.2451 16.6527C12.3715 16.2909 11.5778 15.7605 10.9092 15.092C10.2406 14.4234 9.71029 13.6296 9.34846 12.7561C8.98662 11.8826 8.80039 10.9463 8.80039 10.0008C8.80039 9.05526 8.98662 8.11901 9.34846 7.24546C9.71029 6.37192 10.2406 5.57819 10.9092 4.90961C11.5778 4.24103 12.3715 3.71068 13.2451 3.34885C14.1186 2.98701 15.0549 2.80078 16.0004 2.80078C17.91 2.80078 19.7413 3.55935 21.0916 4.90961C22.4418 6.25987 23.2004 8.09122 23.2004 10.0008C23.2004 11.9103 22.4418 13.7417 21.0916 15.092C19.7413 16.4422 17.91 17.2008 16.0004 17.2008Z" fill="#6DAED6"/>
</g>
</svg>
