<svg width="25" height="24" viewBox="0 0 25 24" fill="none" xmlns="http://www.w3.org/2000/svg">
<g id="user-shared-2-line">
<path id="Vector" d="M14.2998 14.0284V15.9094C13.4852 15.6214 12.6135 15.533 11.7577 15.6518C10.9019 15.7705 10.0871 16.0929 9.38169 16.5917C8.6763 17.0906 8.10091 17.7515 7.70385 18.5188C7.30679 19.2862 7.09964 20.1376 7.0998 21.0016L5.2998 21.0007C5.29953 19.9017 5.55083 18.8172 6.03447 17.8303C6.51811 16.8435 7.22125 15.9804 8.09 15.3073C8.95875 14.6342 9.97006 14.1689 11.0464 13.947C12.1228 13.7252 13.2357 13.7527 14.2998 14.0275V14.0284ZM12.4998 12.9016C9.5163 12.9016 7.0998 10.4851 7.0998 7.50156C7.0998 4.51806 9.5163 2.10156 12.4998 2.10156C15.4833 2.10156 17.8998 4.51806 17.8998 7.50156C17.8998 10.4851 15.4833 12.9016 12.4998 12.9016ZM12.4998 11.1016C14.4888 11.1016 16.0998 9.49056 16.0998 7.50156C16.0998 5.51256 14.4888 3.90156 12.4998 3.90156C10.5108 3.90156 8.89981 5.51256 8.89981 7.50156C8.89981 9.49056 10.5108 11.1016 12.4998 11.1016ZM17.8998 16.5016V13.3516L22.3998 17.4016L17.8998 21.4516V18.3016H15.1998V16.5016H17.8998Z" fill="#0A0D14"/>
</g>
</svg>
