<svg width="24" height="24" viewBox="0 0 24 24" fill="none" xmlns="http://www.w3.org/2000/svg">
<g id="user-line">
<path id="Vector" d="M4.80005 21C4.80005 19.0904 5.55862 17.2591 6.90888 15.9088C8.25914 14.5585 10.0905 13.8 12 13.8C13.9096 13.8 15.741 14.5585 17.0912 15.9088C18.4415 17.2591 19.2 19.0904 19.2 21H17.4C17.4 19.5678 16.8311 18.1943 15.8184 17.1816C14.8057 16.1689 13.4322 15.6 12 15.6C10.5679 15.6 9.19437 16.1689 8.18167 17.1816C7.16898 18.1943 6.60005 19.5678 6.60005 21H4.80005ZM12 12.9C9.01655 12.9 6.60005 10.4835 6.60005 7.49998C6.60005 4.51648 9.01655 2.09998 12 2.09998C14.9835 2.09998 17.4 4.51648 17.4 7.49998C17.4 10.4835 14.9835 12.9 12 12.9ZM12 11.1C13.989 11.1 15.6 9.48898 15.6 7.49998C15.6 5.51098 13.989 3.89998 12 3.89998C10.011 3.89998 8.40005 5.51098 8.40005 7.49998C8.40005 9.48898 10.011 11.1 12 11.1Z" fill="#868C98"/>
</g>
</svg>
