<svg width="20" height="20" viewBox="0 0 20 20" fill="none" xmlns="http://www.w3.org/2000/svg">
<g id="user-2-line">
<path id="Vector" d="M4 17.5C4 15.9087 4.63214 14.3826 5.75736 13.2574C6.88258 12.1321 8.4087 11.5 10 11.5C11.5913 11.5 13.1174 12.1321 14.2426 13.2574C15.3679 14.3826 16 15.9087 16 17.5H4ZM10.75 13.0623V16H14.2443C13.9761 15.2436 13.5109 14.5724 12.8966 14.056C12.2823 13.5395 11.5413 13.1964 10.75 13.0623ZM9.25 16V13.0623C8.45875 13.1964 7.71768 13.5395 7.10339 14.056C6.48909 14.5724 6.02385 15.2436 5.75575 16H9.25ZM10 10.75C7.51375 10.75 5.5 8.73625 5.5 6.25C5.5 3.76375 7.51375 1.75 10 1.75C12.4862 1.75 14.5 3.76375 14.5 6.25C14.5 8.73625 12.4862 10.75 10 10.75ZM10 9.25C11.6575 9.25 13 7.9075 13 6.25C13 4.5925 11.6575 3.25 10 3.25C8.3425 3.25 7 4.5925 7 6.25C7 7.9075 8.3425 9.25 10 9.25Z" fill="#868C98"/>
</g>
</svg>
