<svg width="25" height="24" viewBox="0 0 25 24" fill="none" xmlns="http://www.w3.org/2000/svg">
<g id="Word">
<rect id="Vector" x="7.25" y="3" width="15.75" height="18" rx="1.5" fill="url(#paint0_linear_3062_94202)"/>
<path id="Vector_2" d="M7.25 16.5H23V19.5C23 20.3284 22.3284 21 21.5 21H8.75C7.92157 21 7.25 20.3284 7.25 19.5V16.5Z" fill="url(#paint1_linear_3062_94202)"/>
<rect id="Vector_3" x="7.25" y="12" width="15.75" height="4.5" fill="url(#paint2_linear_3062_94202)"/>
<rect id="Vector_4" x="7.25" y="7.5" width="15.75" height="4.5" fill="url(#paint3_linear_3062_94202)"/>
<path id="Vector_5" d="M7.25 9.75C7.25 8.50736 8.25736 7.5 9.5 7.5H12.875C14.1176 7.5 15.125 8.50736 15.125 9.75V16.8214C15.125 18.0641 14.1176 19.0714 12.875 19.0714H7.25V9.75Z" fill="black" fill-opacity="0.3"/>
<rect id="Vector_6" x="2" y="6.21484" width="11.8125" height="11.5714" rx="1.5" fill="url(#paint4_linear_3062_94202)"/>
<path id="Vector_7" d="M11.8438 8.79427H10.5656L9.56189 12.9888L8.46385 8.78516H7.38297L6.27635 12.9888L5.28125 8.79427H3.96875L5.67586 15.2137H6.80821L7.90625 11.156L9.00429 15.2137H10.1366L11.8438 8.79427Z" fill="white"/>
</g>
<defs>
<linearGradient id="paint0_linear_3062_94202" x1="7.25" y1="6" x2="23" y2="6" gradientUnits="userSpaceOnUse">
<stop stop-color="#2B78B1"/>
<stop offset="1" stop-color="#338ACD"/>
</linearGradient>
<linearGradient id="paint1_linear_3062_94202" x1="7.25" y1="19.3125" x2="23" y2="19.3125" gradientUnits="userSpaceOnUse">
<stop stop-color="#1B366F"/>
<stop offset="1" stop-color="#2657B0"/>
</linearGradient>
<linearGradient id="paint2_linear_3062_94202" x1="14.1406" y1="14.5714" x2="23" y2="14.5714" gradientUnits="userSpaceOnUse">
<stop stop-color="#20478B"/>
<stop offset="1" stop-color="#2D6FD1"/>
</linearGradient>
<linearGradient id="paint3_linear_3062_94202" x1="14.1406" y1="10.0714" x2="23" y2="10.0714" gradientUnits="userSpaceOnUse">
<stop stop-color="#215295"/>
<stop offset="1" stop-color="#2E84D3"/>
</linearGradient>
<linearGradient id="paint4_linear_3062_94202" x1="2" y1="12.6434" x2="14.4687" y2="12.6434" gradientUnits="userSpaceOnUse">
<stop stop-color="#223E74"/>
<stop offset="1" stop-color="#215091"/>
</linearGradient>
</defs>
</svg>
