<svg width="37" height="46" viewBox="0 0 37 46" fill="none" xmlns="http://www.w3.org/2000/svg">
<path id="Union" fill-rule="evenodd" clip-rule="evenodd" d="M9.72913 0C10.0398 0 10.2916 0.25184 10.2916 0.5625V2H26.0416V0.5625C26.0416 0.25184 26.2935 0 26.6041 0C26.9148 0 27.1666 0.25184 27.1666 0.5625V2H28.1666C32.5849 2 36.1666 5.58172 36.1666 10V38C36.1666 42.4183 32.5849 46 28.1666 46H8.16663C3.74835 46 0.166626 42.4183 0.166626 38V10C0.166626 5.58172 3.74835 2 8.16663 2H9.16663V0.5625C9.16663 0.25184 9.41847 0 9.72913 0ZM26.0416 3V4.4375C26.0416 4.74816 26.2935 5 26.6041 5C26.9148 5 27.1666 4.74816 27.1666 4.4375V3H28.1666C32.0326 3 35.1666 6.13401 35.1666 10V12H1.16663V10C1.16663 6.13401 4.30063 3 8.16663 3H9.16663V4.4375C9.16663 4.74816 9.41847 5 9.72913 5C10.0398 5 10.2916 4.74816 10.2916 4.4375V3H26.0416ZM1.16663 13V38C1.16663 41.866 4.30063 45 8.16663 45H28.1666C32.0326 45 35.1666 41.866 35.1666 38V13H1.16663Z" fill="#CDD0D5"/>
</svg>
