<svg width="16" height="16" viewBox="0 0 16 16" fill="none" xmlns="http://www.w3.org/2000/svg">
<g id="WhatsApp">
<path id="Vector" d="M14 8C14 11.3137 11.3137 14 8 14C6.73608 14 5.56344 13.6092 4.59633 12.9418L2.54545 13.4545L3.08288 11.4392C2.40046 10.4653 2 9.27944 2 8C2 4.68629 4.68629 2 8 2C11.3137 2 14 4.68629 14 8Z" fill="url(#paint0_linear_2745_128403)"/>
<path id="Vector_2" fill-rule="evenodd" clip-rule="evenodd" d="M8 15C11.866 15 15 11.866 15 8C15 4.13401 11.866 1 8 1C4.13401 1 1 4.13401 1 8C1 9.25544 1.3305 10.4337 1.90924 11.4525L1 15L4.65743 14.1519C5.65069 14.6927 6.78946 15 8 15ZM8 13.9231C11.2712 13.9231 13.9231 11.2712 13.9231 8C13.9231 4.72878 11.2712 2.07692 8 2.07692C4.72878 2.07692 2.07692 4.72878 2.07692 8C2.07692 9.26303 2.47225 10.4337 3.14592 11.3951L2.61538 13.3846L4.63997 12.8785C5.59468 13.5373 6.75229 13.9231 8 13.9231Z" fill="white"/>
<path id="Vector_3" d="M6.25001 4.75068C6.08358 4.41639 5.82826 4.44598 5.57034 4.44598C5.10938 4.44598 4.39062 4.99812 4.39062 6.02571C4.39063 6.86787 4.76172 7.78975 6.01221 9.16879C7.21902 10.4997 8.80469 11.1881 10.1211 11.1647C11.4375 11.1413 11.7083 10.0085 11.7083 9.62589C11.7083 9.45633 11.6031 9.37173 11.5306 9.34874C11.082 9.13345 10.2547 8.7323 10.0664 8.65693C9.87816 8.58156 9.77986 8.68351 9.71876 8.73897C9.54804 8.90166 9.20963 9.38112 9.09376 9.48897C8.97789 9.59681 8.80514 9.54223 8.73325 9.50146C8.46872 9.39531 7.75146 9.07627 7.17973 8.52204C6.47266 7.83662 6.43117 7.6008 6.29795 7.39089C6.19138 7.22296 6.26958 7.11992 6.3086 7.0749C6.46095 6.89911 6.6713 6.62773 6.76564 6.49286C6.85997 6.358 6.78508 6.15324 6.74015 6.02571C6.54689 5.47724 6.38316 5.01811 6.25001 4.75068Z" fill="white"/>
</g>
<defs>
<linearGradient id="paint0_linear_2745_128403" x1="13.25" y1="3.5" x2="2" y2="14" gradientUnits="userSpaceOnUse">
<stop stop-color="#5BD066"/>
<stop offset="1" stop-color="#27B43E"/>
</linearGradient>
</defs>
</svg>
